<svg width="347" height="197" viewBox="0 0 347 197" fill="none" xmlns="http://www.w3.org/2000/svg">
<path d="M38.4885 152.842C36.9828 151.209 34.982 150.002 32.4656 149.204C29.9492 148.406 27.1853 148.016 24.1739 148.016C20.1312 148.016 16.6247 148.592 13.6339 149.742C10.6431 150.893 8.3536 152.508 6.76539 154.587C5.17717 156.666 4.39337 159.041 4.39337 161.714C4.39337 164.276 5.09467 166.41 6.51787 168.136C7.94108 169.863 9.65305 171.218 11.6538 172.22C13.6545 173.222 16.2328 174.28 19.4092 175.394C21.8844 176.285 23.8026 177.027 25.1639 177.64C26.5253 178.252 27.6597 179.013 28.5673 179.923C29.4748 180.832 29.9286 181.909 29.9286 183.171C29.9286 185.213 28.9385 186.79 26.9584 187.923C24.9783 189.055 22.235 189.612 18.7286 189.612C15.3459 189.612 12.7264 189.203 10.8494 188.387C8.97239 187.57 8.04421 186.326 8.04421 184.656C8.04421 184.247 8.08547 183.858 8.14735 183.486C8.20922 183.115 8.22984 182.855 8.22984 182.707C8.3536 182.15 8.41548 181.5 8.41548 180.758C8.41548 179.941 8.06484 179.273 7.36355 178.753C6.66226 178.234 5.75471 177.974 4.64089 177.974C3.11455 177.974 1.95949 178.512 1.17569 179.589C0.391897 180.665 0 182.224 0 184.266C0 188.127 1.65009 190.985 4.95028 192.86C8.25047 194.735 12.6439 195.663 18.1098 195.663C24.2976 195.663 29.2273 194.493 32.9194 192.136C36.6115 189.779 38.4472 186.419 38.4472 182.039C38.4472 179.7 37.7666 177.733 36.4465 176.136C35.1058 174.54 33.4969 173.278 31.5993 172.35C29.7017 171.422 27.1853 170.382 24.0501 169.232C21.4512 168.303 19.4299 167.505 17.986 166.837C16.5422 166.169 15.3459 165.334 14.3764 164.331C13.407 163.329 12.9326 162.123 12.9326 160.712C12.9326 158.596 13.8608 156.963 15.7378 155.793C17.6148 154.624 20.3168 154.048 23.8645 154.048C26.3809 154.048 28.4848 154.457 30.1761 155.274C31.8675 156.09 32.7131 157.278 32.7131 158.837C32.7131 159.134 32.6513 159.84 32.5275 160.953C32.4037 161.547 32.3419 162.197 32.3419 162.902C32.3419 163.719 32.6925 164.424 33.4144 165.018C34.1363 165.612 35.0233 165.909 36.0958 165.909C37.6222 165.909 38.7772 165.315 39.561 164.127C40.3448 162.939 40.7367 161.176 40.7367 158.837C40.7573 156.48 39.9942 154.475 38.4885 152.842Z" fill="white"/>
<path d="M141.599 157.965C140.65 157.296 139.413 156.962 137.886 156.962C136.195 156.962 134.792 157.389 133.658 158.262C132.523 159.134 131.967 160.211 131.967 161.511C131.967 162.811 132.4 163.813 133.266 164.537C134.132 165.261 135.432 165.614 137.164 165.614C138.938 165.614 140.361 165.187 141.434 164.315C142.507 163.442 143.043 162.272 143.043 160.787C143.002 159.58 142.527 158.633 141.599 157.965Z" fill="white"/>
<path d="M136.462 169.307C134.771 169.307 133.554 169.53 132.791 169.994C132.028 170.458 131.492 171.275 131.161 172.407C130.068 176.398 129.202 180.723 128.563 185.345C127.449 186.496 126.479 187.387 125.737 188.018C124.623 188.927 123.674 189.391 122.89 189.391C122.395 189.391 121.983 189.224 121.694 188.89C121.405 188.556 121.24 188.11 121.24 187.554C121.24 185.883 121.715 182.913 122.663 178.644C123.282 175.711 123.592 173.855 123.592 173.075C123.592 171.776 122.581 171.126 120.56 171.126C119.611 171.126 118.703 171.201 117.837 171.349C117.631 170.532 117.383 169.976 117.074 169.66C116.764 169.345 116.166 169.196 115.259 169.196C112.412 169.196 109.731 169.994 107.194 171.609C104.657 173.224 102.635 175.359 101.109 178.013C101.006 178.217 100.923 178.421 100.82 178.607C98.8195 179.015 97.0251 179.275 95.4987 179.368C95.1687 176.621 94.1374 174.319 92.4048 172.444C90.6722 170.57 88.4239 169.549 85.66 169.363C88.6302 166.059 90.7547 162.904 92.0335 159.915C93.3123 156.908 93.9518 153.883 93.9518 150.838C93.9518 148.5 93.3742 146.606 92.2191 145.14C91.0641 143.674 89.5377 142.95 87.6401 142.95C84.1337 142.95 81.1222 144.917 78.5852 148.871C76.0482 152.825 74.1299 157.613 72.8099 163.219C71.4898 168.843 70.8297 174.041 70.8297 178.83C70.8297 180.871 70.9741 182.746 71.2423 184.417C69.7159 186.032 68.4577 187.257 67.4883 188.036C66.3745 188.946 65.4257 189.41 64.6419 189.41C64.1468 189.41 63.7343 189.243 63.4455 188.909C63.1568 188.575 62.9918 188.129 62.9918 187.572C62.9918 185.902 63.4662 182.932 64.415 178.663C65.0338 175.73 65.3432 173.874 65.3432 173.094C65.3432 171.795 64.3325 171.145 62.3111 171.145C61.3623 171.145 60.4547 171.219 59.5884 171.368C59.3822 170.551 59.1347 169.994 58.8253 169.679C58.5159 169.363 57.9177 169.215 57.0101 169.215C54.1637 169.215 51.4823 170.013 48.9453 171.628C46.4083 173.242 44.3869 175.377 42.8606 178.031C41.3342 180.686 40.571 183.489 40.571 186.458C40.571 189.168 41.3342 191.359 42.8606 193.029C44.3869 194.7 46.4289 195.535 48.9865 195.535C52.2455 195.535 54.9475 193.976 57.0927 190.858C57.6702 192.305 58.5159 193.438 59.6503 194.273C60.7848 195.108 62.0223 195.517 63.3837 195.517C65.1575 195.517 66.9933 194.867 68.8909 193.568C70.3347 192.584 71.7167 191.414 73.0367 190.078C73.243 190.486 73.4699 190.858 73.7174 191.229C75.615 194.087 78.6471 195.517 82.8136 195.517C85.5775 195.517 88.0939 194.57 90.3834 192.677C92.6729 190.783 94.2199 188.296 95.0449 185.215C96.4063 185.159 97.7264 185.029 98.9846 184.844C98.9433 185.382 98.8814 185.902 98.8814 186.44C98.8814 189.15 99.6446 191.34 101.171 193.011C102.697 194.681 104.739 195.517 107.297 195.517C110.556 195.517 113.258 193.957 115.403 190.839C115.981 192.287 116.826 193.419 117.961 194.254C119.095 195.09 120.333 195.498 121.694 195.498C123.468 195.498 125.304 194.848 127.201 193.549C127.449 193.382 127.676 193.196 127.923 193.029C128.006 193.79 128.233 194.384 128.624 194.774C129.119 195.257 130.027 195.498 131.347 195.498C132.832 195.498 133.925 195.257 134.627 194.774C135.328 194.292 135.72 193.456 135.802 192.268C136.174 186.885 137.287 180.24 139.144 172.296C139.226 171.776 139.268 171.423 139.268 171.238C139.123 169.957 138.236 169.307 136.462 169.307ZM55.4632 184.621C55.0919 186.217 54.4938 187.498 53.6687 188.463C52.8437 189.428 51.9773 189.911 51.0698 189.911C50.1622 189.911 49.4609 189.633 48.9453 189.076C48.4296 188.519 48.1821 187.665 48.1821 186.514C48.1821 184.435 48.6153 182.468 49.4816 180.612C50.3479 178.755 51.5029 177.27 52.9674 176.138C54.4319 175.006 56.0201 174.43 57.7527 174.393L55.4632 184.621ZM80.751 160.75C81.576 156.964 82.4629 153.975 83.4324 151.767C84.4018 149.558 85.2887 148.463 86.1138 148.463C86.6501 148.463 87.0626 148.778 87.372 149.409C87.6814 150.04 87.8258 150.95 87.8258 152.138C87.8258 154.811 87.0213 157.855 85.3919 161.289C83.7624 164.723 81.5966 168.676 78.874 173.168C79.3071 168.676 79.9259 164.537 80.751 160.75ZM86.32 188.185C85.33 189.15 84.1955 189.633 82.9167 189.633C81.7204 189.633 80.6891 189.076 79.8022 187.962C78.9152 186.848 78.4821 185.233 78.4821 183.117C78.4821 180.593 79.039 178.588 80.1734 177.085C81.3079 175.581 82.7105 174.839 84.4018 174.839H84.5874C84.4224 175.73 84.3399 176.435 84.3399 176.955C84.3399 178.366 84.6906 179.702 85.3506 180.964C86.0313 182.226 87.0007 183.247 88.2795 184.027C87.9701 185.827 87.3101 187.219 86.32 188.185ZM113.774 184.621C113.402 186.217 112.804 187.498 111.979 188.463C111.154 189.428 110.288 189.911 109.38 189.911C108.473 189.911 107.771 189.633 107.256 189.076C106.74 188.519 106.493 187.665 106.493 186.514C106.493 184.435 106.926 182.468 107.792 180.612C108.658 178.755 109.813 177.27 111.278 176.138C112.742 175.006 114.33 174.43 116.063 174.393L113.774 184.621Z" fill="white"/>
<path d="M231.549 165.651C233.323 165.651 234.747 165.224 235.819 164.351C236.892 163.479 237.428 162.309 237.428 160.823C237.428 159.598 236.954 158.651 236.005 157.983C235.056 157.314 233.818 156.98 232.292 156.98C230.601 156.98 229.198 157.407 228.064 158.28C226.929 159.152 226.372 160.229 226.372 161.529C226.372 162.829 226.805 163.831 227.672 164.555C228.517 165.28 229.817 165.651 231.549 165.651Z" fill="white"/>
<path d="M345.448 184.081C344.767 182.986 343.777 181.668 342.457 180.109C341.55 179.107 340.89 178.271 340.457 177.603C340.023 176.935 339.817 176.323 339.817 175.766C339.817 174.838 340.188 173.705 340.931 172.369C341.22 171.886 341.447 171.404 341.612 170.921C341.777 170.439 341.859 170.086 341.859 169.863C341.859 169.455 341.632 169.158 341.178 168.972C340.725 168.787 339.92 168.694 338.765 168.694C336.29 168.694 334.661 169.511 333.877 171.144C332.639 173.705 331.649 175.729 330.886 177.213C330.123 178.698 329.38 179.979 328.638 181.056C327.565 182.559 326.018 184.471 323.997 186.735C323.44 187.255 322.904 187.719 322.45 188.072C321.295 188.963 320.16 189.408 319.047 189.408C318.18 189.408 317.479 188.944 316.922 188.016C316.365 187.088 316.014 185.547 315.849 183.394C319.645 177.529 322.677 171.831 324.946 166.262C327.214 160.694 328.349 155.831 328.349 151.692C328.349 148.759 327.771 146.569 326.596 145.121C325.42 143.674 323.956 142.95 322.182 142.95C318.593 142.95 315.705 145.493 313.498 150.597C311.291 155.701 309.806 161.845 309.022 169.047C305.969 169.344 303.226 170.29 300.772 171.905C298.317 173.52 296.399 175.599 294.996 178.142C293.656 180.592 292.954 183.246 292.913 186.086C292.088 186.902 291.366 187.552 290.768 188.035C289.634 188.944 288.664 189.408 287.839 189.408C286.643 189.408 286.045 188.666 286.045 187.181C286.045 186.141 286.436 184.007 287.22 180.777C288.128 176.991 288.582 174.374 288.582 172.926C288.582 170.513 287.241 169.306 284.559 169.306C283.198 169.306 281.713 169.733 280.084 170.587C278.454 171.441 276.804 172.87 275.113 174.875C273.421 176.879 271.895 179.478 270.534 182.67C270.699 181.037 270.905 179.664 271.152 178.55C271.4 177.436 271.73 176.137 272.142 174.652C272.761 172.573 273.071 171.237 273.071 170.643C273.071 170.123 272.906 169.77 272.576 169.585C272.246 169.399 271.668 169.306 270.843 169.306C269.317 169.306 268.141 169.548 267.295 170.049C266.45 170.55 265.851 171.33 265.48 172.406C264.078 176.397 263.356 180.61 263.232 185.009C261.829 186.253 260.262 187.329 258.509 188.183C256.137 189.352 254.033 189.928 252.176 189.928C249.289 189.928 247.329 189.074 246.298 187.366C251.166 186.29 254.61 184.842 256.652 183.005C258.694 181.167 259.705 178.977 259.705 176.415C259.705 174.225 258.983 172.499 257.539 171.218C256.095 169.938 254.177 169.306 251.784 169.306C249.103 169.306 246.71 169.956 244.586 171.255C242.461 172.555 240.811 174.299 239.615 176.508C238.419 178.717 237.82 181.093 237.82 183.654C237.82 184.489 237.882 185.288 238.006 186.03C237.202 186.828 236.5 187.496 235.902 187.979C234.788 188.907 233.86 189.371 233.118 189.371C232.334 189.371 231.777 189.074 231.447 188.48C231.117 187.886 230.952 187.032 230.952 185.919C230.952 184.471 231.447 181.705 232.437 177.622C233.221 174.244 233.613 172.091 233.613 171.163C233.613 169.9 232.561 169.269 230.457 169.269C229.096 169.269 228.105 169.492 227.487 169.938C226.868 170.383 226.373 171.2 226.002 172.388C225.259 174.652 224.661 177.084 224.187 179.701C224.166 179.812 224.145 179.923 224.125 180.035C223.093 180.722 222.186 181.111 221.423 181.111C220.391 181.111 219.876 180.462 219.876 179.162C219.876 178.791 220.041 177.863 220.371 176.378C220.742 174.522 220.928 173.353 220.928 172.87C220.928 170.457 219.587 169.251 216.905 169.251C215.544 169.251 214.059 169.678 212.43 170.531C210.8 171.385 209.15 172.815 207.459 174.819C205.767 176.824 204.241 179.422 202.88 182.615C203.045 180.981 203.251 179.608 203.498 178.494C203.746 177.381 204.076 176.081 204.488 174.596C205.107 172.518 205.417 171.181 205.417 170.587C205.417 170.067 205.252 169.715 204.922 169.529C204.592 169.344 204.014 169.251 203.189 169.251C202.013 169.251 201.044 169.399 200.281 169.696C199.786 169.585 199.167 169.529 198.445 169.529L187.802 169.696C188.338 165.167 188.854 160.156 189.349 154.68H192.133C194.774 154.68 197.29 154.736 199.703 154.847C202.116 154.959 204.53 155.107 206.964 155.293L209.129 155.46C212.182 155.645 213.708 154.458 213.708 151.896C213.708 151.117 213.502 150.486 213.069 150.003C212.636 149.52 211.852 149.205 210.697 149.056C205.334 148.388 199.146 148.054 192.154 148.054C182.047 148.054 174.374 149.093 169.114 151.172C163.855 153.251 161.235 156.592 161.235 161.177C161.235 162.587 161.462 163.868 161.916 165.019C162.37 166.17 162.844 166.931 163.339 167.302C164.123 167.896 165.072 168.193 166.186 168.193C167.217 168.193 168.145 167.952 168.97 167.45C169.795 166.949 170.208 166.374 170.208 165.706C170.208 165.372 170.084 165.037 169.836 164.703C169.011 163.553 168.599 162.346 168.599 161.084C168.599 159.265 169.506 157.891 171.321 156.963C173.137 156.035 176.272 155.386 180.727 155.014C180.15 160.843 179.613 165.798 179.118 169.863C178.004 169.9 176.87 169.919 175.715 169.919C174.436 169.919 173.467 170.235 172.807 170.828C172.147 171.441 171.817 172.313 171.817 173.464C171.817 174.355 172.147 175.042 172.827 175.524C173.508 176.007 174.312 176.248 175.261 176.248H178.231L177.86 179.311C177.406 183.023 176.396 185.733 174.807 187.459C173.219 189.185 171.26 190.039 168.908 190.039C165.979 190.039 163.525 188.87 161.545 186.531C160.802 185.677 160.204 185.102 159.73 184.805C159.255 184.508 158.76 184.36 158.286 184.36C157.584 184.36 157.007 184.694 156.532 185.362C156.058 186.03 155.831 186.81 155.831 187.701C155.831 188.591 156.058 189.352 156.512 189.984C157.626 191.543 159.358 192.86 161.71 193.956C164.061 195.051 166.639 195.589 169.444 195.589C174.395 195.589 178.273 194.29 181.098 191.691C183.924 189.093 185.76 184.731 186.626 178.624L186.997 176.23H196.754C195.99 179.404 195.599 182.67 195.599 186.086C195.599 189.352 195.929 191.728 196.568 193.213C197.207 194.698 198.301 195.44 199.868 195.44C201.147 195.44 202.075 195.125 202.673 194.512C203.272 193.9 203.787 192.731 204.241 190.986C204.86 188.721 205.664 186.568 206.654 184.527C207.644 182.485 208.634 180.851 209.645 179.608C210.656 178.364 211.46 177.752 212.079 177.752C212.533 177.752 212.76 178.049 212.76 178.643C212.76 178.903 212.718 179.404 212.636 180.146C212.512 180.703 212.45 181.26 212.45 181.817C212.45 183.524 213.007 184.879 214.142 185.882C215.276 186.884 216.926 187.385 219.112 187.385C220.659 187.385 222.124 187.069 223.526 186.457C223.568 189.111 224.166 191.264 225.321 192.898C226.538 194.605 228.477 195.459 231.158 195.459C234.025 195.459 237.057 193.974 240.254 191.06C240.605 191.487 240.976 191.914 241.409 192.285C243.802 194.401 247.164 195.459 251.496 195.459C254.672 195.459 257.642 194.754 260.427 193.343C261.623 192.749 262.675 192.118 263.624 191.468C263.768 192.137 263.933 192.749 264.14 193.232C264.779 194.717 265.872 195.459 267.44 195.459C268.719 195.459 269.647 195.144 270.245 194.531C270.843 193.918 271.359 192.749 271.812 191.004C272.431 188.74 273.236 186.587 274.246 184.545C275.257 182.503 276.247 180.87 277.217 179.626C278.186 178.383 278.928 177.77 279.465 177.77C279.919 177.77 280.145 178.067 280.145 178.661C280.145 179.552 279.877 181.167 279.341 183.506C278.763 186.179 278.475 188.035 278.475 189.074C278.475 191.153 279.011 192.731 280.084 193.826C281.156 194.921 282.744 195.459 284.848 195.459C287.447 195.459 289.757 194.828 291.799 193.566C292.686 193.028 293.532 192.396 294.378 191.71C294.666 192.137 294.976 192.545 295.326 192.916C296.956 194.605 299.018 195.44 301.535 195.44C303.267 195.44 304.773 195.106 306.073 194.438C307.372 193.77 308.878 192.452 310.61 190.485C312.26 193.789 314.653 195.44 317.788 195.44C319.768 195.44 321.769 194.791 323.791 193.473C325.812 192.155 327.668 190.577 329.36 188.721C329.566 188.499 329.752 188.257 329.896 187.979C330.123 187.738 330.35 187.515 330.556 187.274C331.814 185.826 333.072 184.007 334.351 181.817C334.929 182.411 335.548 183.097 336.208 183.895C336.868 184.694 337.404 185.51 337.837 186.364C338.27 187.218 338.497 188.127 338.538 189.093C338.167 189.055 337.631 189 336.909 188.907C336.187 188.814 335.568 188.777 335.032 188.777C333.505 188.777 332.35 189.13 331.567 189.835C330.783 190.54 330.391 191.376 330.391 192.341C330.391 193.454 330.948 194.457 332.082 195.348C333.217 196.239 334.846 196.684 336.991 196.684C338.848 196.684 340.498 196.257 341.942 195.403C343.385 194.55 344.499 193.436 345.304 192.044C346.108 190.652 346.5 189.185 346.5 187.626C346.479 186.383 346.129 185.176 345.448 184.081ZM317.066 161.975C317.623 157.929 318.304 154.662 319.067 152.156C319.851 149.65 320.635 148.407 321.419 148.407C321.79 148.407 322.099 148.796 322.388 149.576C322.656 150.356 322.78 151.451 322.78 152.861C322.78 158.355 320.47 165.613 315.849 174.671C316.118 170.235 316.53 166.021 317.066 161.975ZM245.205 182.949C245.205 180.684 245.72 178.754 246.772 177.158C247.824 175.562 249.103 174.763 250.629 174.763C251.372 174.763 251.949 174.986 252.383 175.395C252.816 175.821 253.043 176.397 253.043 177.084C253.043 178.457 252.341 179.664 250.939 180.703C249.536 181.742 247.618 182.522 245.184 183.042V182.949H245.205ZM305.99 189.037C305.206 189.612 304.423 189.891 303.639 189.891C301.576 189.891 300.545 188.536 300.545 185.826C300.545 183.264 301.287 180.944 302.793 178.847C304.299 176.749 306.176 175.395 308.445 174.763C308.362 176.768 308.321 178.216 308.321 179.107C308.321 181.594 308.527 183.84 308.94 185.844C307.743 187.404 306.753 188.462 305.99 189.037Z" fill="white"/>
<path d="M173.406 115.25C208.77 115.25 237.439 89.4508 237.439 57.6252C237.439 25.7997 208.77 0 173.406 0C138.041 0 109.372 25.7997 109.372 57.6252C109.372 89.4508 138.041 115.25 173.406 115.25Z" fill="white"/>
<path d="M228.476 51.7535C233.098 64.2049 223.658 79.7817 209.568 83.4617C197.383 86.6376 185.563 85.1252 174.106 80.6387C168.812 78.5467 163.77 75.8497 158.364 74.0602C153.378 72.4218 148.111 70.9347 142.873 70.607C134.974 70.1029 128.476 75.27 126.739 82.2014C126.571 82.9324 126.375 83.6381 126.067 84.7724C125.31 83.9154 124.75 83.4113 124.358 82.8316C120.744 77.2864 118.335 71.338 117.411 64.9611C115.45 51.4259 126.179 42.7805 141.277 45.6035C147.299 46.7377 152.509 49.3842 157.243 52.787C163.154 57.0466 168.84 61.6088 174.89 65.7172C183.322 71.464 192.733 74.6147 203.518 73.3544C215.395 71.9933 224.302 65.0115 227.552 54.6017C227.804 53.77 228.084 52.913 228.476 51.7535Z" fill="#00B4ED"/>
<path d="M218.644 86.1325C212.79 94.0473 205.003 99.7943 195.367 103.474C178.252 110.003 161.445 109.171 145.143 101.206C139.737 98.5592 135.423 94.8539 134.162 89.0312C132.566 81.6206 138.056 76.2012 146.263 77.638C150.549 78.3942 154.639 80.083 158.728 81.5702C164.779 83.7883 170.577 86.6114 176.767 88.4515C190.913 92.6105 205.031 93.2155 218.644 86.1325Z" fill="#107DC2"/>
<path d="M185.227 66.0188C193.155 63.9517 198.281 60.12 200.41 53.5659C201.81 49.2805 201.306 45.1211 199.037 41.1635C193.715 31.9625 183.519 29.7441 170.017 35.3656C170.97 33.8531 171.474 32.7943 172.23 31.912C176.46 26.946 182.342 24.5512 189.037 23.8202C198.953 22.7363 207.917 24.9042 215.34 31.1054C222.735 37.2814 224.611 44.9447 221.558 53.4651C218.533 61.9602 211.418 66.2456 201.95 67.506C196.6 68.2119 191.306 67.7833 185.227 66.0188Z" fill="#DF889E"/>
<path d="M213.126 22.006C201.166 16.536 188.981 14.9732 176.964 20.6448C164.191 26.6693 161.333 37.4327 162.146 50.1875C154.555 44.5411 150.017 38.4158 150.241 30.0722C150.605 17.2418 161.081 8.09167 176.712 7.43629C191.081 6.83132 202.874 12.15 212.846 21.1741C212.986 21.3002 212.958 21.5018 213.126 22.006Z" fill="#F1B687"/>
<path d="M193.854 48.9792C193.854 54.8536 188.756 59.4926 182.257 59.5431C175.731 59.5935 170.381 54.7276 170.465 48.8279C170.549 43.0039 175.759 38.4153 182.257 38.4657C188.812 38.4657 193.882 43.0796 193.854 48.9792Z" fill="#F0BE75"/>
<path d="M152.172 11.1694C143.181 19.7136 142.172 29.3164 145.31 40.0281C135.674 37.1801 126.99 37.3817 119.399 43.6323C118.559 38.1378 124.693 32.1393 133.937 29.1904C134.105 19.26 141.64 12.7069 152.172 11.1694Z" fill="#C7906E"/>
</svg>
