<svg width="171" height="32" viewBox="0 0 171 32" fill="none" xmlns="http://www.w3.org/2000/svg">
<path d="M16 32C24.8366 32 32 24.8366 32 16C32 7.16344 24.8366 0 16 0C7.16344 0 0 7.16344 0 16C0 24.8366 7.16344 32 16 32Z" fill="white"/>
<path d="M29.7602 14.3695C30.9151 17.8267 28.5564 22.1516 25.0358 23.1733C21.9912 24.0551 19.0376 23.6352 16.1749 22.3895C14.8521 21.8086 13.5923 21.0598 12.2414 20.563C10.9956 20.1081 9.67975 19.6952 8.37091 19.6042C6.39716 19.4642 4.77336 20.8989 4.33941 22.8234C4.29742 23.0263 4.24843 23.2223 4.17144 23.5372C3.98246 23.2993 3.84248 23.1593 3.74449 22.9983C2.8416 21.4587 2.23968 19.8072 2.00871 18.0366C1.51877 14.2786 4.19943 11.8782 7.97196 12.662C9.47677 12.9769 10.7786 13.7117 11.9615 14.6565C13.4383 15.8392 14.8591 17.1058 16.3709 18.2465C18.4776 19.8421 20.8294 20.7169 23.524 20.367C26.4916 19.9891 28.7174 18.0506 29.5293 15.1603C29.5923 14.9294 29.6623 14.6915 29.7602 14.3695Z" fill="#00B4ED"/>
<path d="M27.3037 23.9151C25.8409 26.1128 23.8951 27.7085 21.4874 28.7304C17.2109 30.5431 13.0115 30.3121 8.93796 28.1005C7.58713 27.3656 6.50926 26.3368 6.1943 24.72C5.79535 22.6624 7.16718 21.1576 9.21793 21.5565C10.2888 21.7665 11.3107 22.2354 12.3325 22.6484C13.8444 23.2643 15.2932 24.0481 16.84 24.559C20.3745 25.7139 23.9021 25.8818 27.3037 23.9151Z" fill="#107DC2"/>
<path d="M18.9538 18.3307C20.9346 17.7568 22.2154 16.693 22.7474 14.8732C23.0973 13.6834 22.9713 12.5285 22.4044 11.4297C21.0746 8.875 18.5269 8.25908 15.1533 9.81988C15.3913 9.39993 15.5173 9.10597 15.7063 8.861C16.7631 7.48219 18.2329 6.81728 19.9057 6.6143C22.3834 6.31334 24.6231 6.91526 26.4779 8.63703C28.3257 10.3518 28.7946 12.4795 28.0317 14.8452C27.2758 17.2039 25.498 18.3937 23.1323 18.7437C21.7955 18.9397 20.4727 18.8207 18.9538 18.3307Z" fill="#DF889E"/>
<path d="M25.925 6.11008C22.9364 4.59132 19.8917 4.15738 16.8891 5.73214C13.6975 7.40488 12.9836 10.3934 13.1866 13.9349C11.2898 12.3671 10.1559 10.6664 10.2119 8.34974C10.3029 4.78729 12.9206 2.24668 16.8261 2.06471C20.4167 1.89673 23.3633 3.37351 25.855 5.87912C25.89 5.91411 25.883 5.9701 25.925 6.11008Z" fill="#F1B687"/>
<path d="M21.1094 13.599C21.1094 15.2301 19.8356 16.5182 18.2118 16.5322C16.581 16.5462 15.2441 15.1951 15.2651 13.557C15.2861 11.9399 16.588 10.6658 18.2118 10.6798C19.8496 10.6798 21.1164 11.9609 21.1094 13.599Z" fill="#F0BE75"/>
<path d="M10.6945 3.10107C8.44778 5.47343 8.19581 8.1397 8.97972 11.1139C6.57202 10.3231 4.40228 10.3791 2.50552 12.1146C2.29554 10.589 3.82836 8.92349 6.13807 8.10471C6.18006 5.34746 8.06283 3.52796 10.6945 3.10107Z" fill="#C7906E"/>
<path d="M52.7673 8.02546C52.1896 7.39991 51.422 6.93786 50.4565 6.63219C49.491 6.32653 48.4305 6.17725 47.2751 6.17725C45.724 6.17725 44.3786 6.39761 43.2311 6.83834C42.0836 7.27907 41.2051 7.89751 40.5958 8.69367C39.9864 9.48982 39.6857 10.3997 39.6857 11.4233C39.6857 12.4043 39.9547 13.2218 40.5008 13.8829C41.0469 14.544 41.7037 15.0629 42.4714 15.4468C43.239 15.8306 44.2282 16.2358 45.447 16.6623C46.3967 17.0035 47.1326 17.2879 47.655 17.5225C48.1773 17.757 48.6126 18.0485 48.9608 18.3968C49.309 18.7451 49.4831 19.1574 49.4831 19.6408C49.4831 20.4227 49.1032 21.027 48.3435 21.4606C47.5837 21.8942 46.5312 22.1075 45.1858 22.1075C43.8879 22.1075 42.8829 21.9511 42.1627 21.6383C41.4425 21.3255 41.0864 20.8493 41.0864 20.2095C41.0864 20.0531 41.1023 19.9038 41.126 19.7616C41.1497 19.6195 41.1576 19.52 41.1576 19.4631C41.2051 19.2498 41.2289 19.001 41.2289 18.7167C41.2289 18.4039 41.0943 18.148 40.8253 17.949C40.5562 17.7499 40.208 17.6504 39.7806 17.6504C39.195 17.6504 38.7518 17.8566 38.4511 18.2689C38.1504 18.6812 38 19.2783 38 20.0602C38 21.5388 38.6331 22.6335 39.8993 23.3515C41.1656 24.0694 42.8512 24.4248 44.9484 24.4248C47.3226 24.4248 49.214 23.977 50.6306 23.0742C52.0472 22.1714 52.7515 20.8848 52.7515 19.2072C52.7515 18.3115 52.4904 17.558 51.9839 16.9467C51.4695 16.3353 50.8522 15.852 50.1241 15.4965C49.396 15.1411 48.4305 14.743 47.2276 14.3023C46.2305 13.9469 45.4549 13.6412 44.9009 13.3853C44.347 13.1294 43.8879 12.8095 43.516 12.4256C43.144 12.0418 42.962 11.5797 42.962 11.0395C42.962 10.2291 43.3181 9.60356 44.0383 9.15572C44.7585 8.70788 45.7952 8.48752 47.1564 8.48752C48.1219 8.48752 48.9291 8.64391 49.578 8.95668C50.227 9.26946 50.5515 9.7244 50.5515 10.3215C50.5515 10.4353 50.5277 10.7054 50.4802 11.1319C50.4327 11.3594 50.409 11.6082 50.409 11.8783C50.409 12.1911 50.5435 12.4612 50.8205 12.6887C51.0975 12.9161 51.4378 13.0299 51.8493 13.0299C52.435 13.0299 52.8781 12.8024 53.1789 12.3475C53.4796 11.8925 53.63 11.2172 53.63 10.3215C53.6379 9.41874 53.3451 8.65102 52.7673 8.02546Z" fill="white"/>
<path d="M92.3291 9.98753C91.9651 9.73152 91.4902 9.60352 90.9046 9.60352C90.2557 9.60352 89.7175 9.76708 89.2822 10.1013C88.847 10.4355 88.6333 10.848 88.6333 11.3458C88.6333 11.8436 88.7995 12.2276 89.1319 12.5049C89.4643 12.7823 89.9628 12.9174 90.6276 12.9174C91.3082 12.9174 91.8543 12.7538 92.2658 12.4196C92.6773 12.0854 92.8831 11.6373 92.8831 11.0684C92.8673 10.6062 92.6852 10.2435 92.3291 9.98753Z" fill="white"/>
<path d="M90.3583 14.3315C89.7093 14.3315 89.2424 14.4168 88.9496 14.5945C88.6568 14.7723 88.451 15.0851 88.3244 15.5187C87.9049 17.0471 87.5726 18.7035 87.3272 20.4736C86.8999 20.9144 86.5279 21.2556 86.243 21.4973C85.8157 21.8457 85.4516 22.0234 85.1509 22.0234C84.961 22.0234 84.8027 21.9594 84.6919 21.8314C84.5811 21.7035 84.5178 21.5329 84.5178 21.3196C84.5178 20.6798 84.6998 19.5424 85.0638 17.9073C85.3013 16.7841 85.42 16.0732 85.42 15.7746C85.42 15.277 85.0322 15.0282 84.2566 15.0282C83.8926 15.0282 83.5444 15.0566 83.212 15.1135C83.1328 14.8007 83.0379 14.5874 82.9192 14.4666C82.8005 14.3457 82.571 14.2889 82.2227 14.2889C81.1306 14.2889 80.1018 14.5945 79.1284 15.213C78.155 15.8315 77.3794 16.649 76.7938 17.6656C76.7542 17.7438 76.7226 17.822 76.683 17.8931C75.9153 18.0495 75.2268 18.149 74.6412 18.1846C74.5146 17.1324 74.1189 16.2509 73.4541 15.5329C72.7893 14.8149 71.9267 14.4239 70.8663 14.3528C72.0059 13.0874 72.821 11.8789 73.3117 10.7344C73.8023 9.58274 74.0477 8.42398 74.0477 7.25812C74.0477 6.36239 73.8261 5.63728 73.3829 5.07567C72.9397 4.51406 72.3541 4.23682 71.626 4.23682C70.2806 4.23682 69.1252 4.99036 68.1518 6.50457C67.1784 8.01877 66.4424 9.85288 65.9359 11.9998C65.4294 14.1538 65.1761 16.1443 65.1761 17.9784C65.1761 18.7604 65.2315 19.4784 65.3344 20.1182C64.7488 20.7367 64.266 21.2059 63.8941 21.5044C63.4667 21.8528 63.1027 22.0305 62.802 22.0305C62.612 22.0305 62.4537 21.9665 62.343 21.8386C62.2322 21.7106 62.1688 21.54 62.1688 21.3267C62.1688 20.6869 62.3509 19.5495 62.7149 17.9144C62.9523 16.7912 63.071 16.0803 63.071 15.7817C63.071 15.2841 62.6832 15.0353 61.9077 15.0353C61.5436 15.0353 61.1954 15.0637 60.863 15.1206C60.7839 14.8078 60.6889 14.5945 60.5702 14.4737C60.4515 14.3528 60.222 14.296 59.8738 14.296C58.7817 14.296 57.7529 14.6017 56.7795 15.2201C55.806 15.8386 55.0305 16.6561 54.4449 17.6727C53.8592 18.6893 53.5664 19.7627 53.5664 20.9002C53.5664 21.9381 53.8592 22.7769 54.4449 23.4167C55.0305 24.0565 55.814 24.3764 56.7953 24.3764C58.0457 24.3764 59.0824 23.7793 59.9055 22.585C60.127 23.1395 60.4515 23.5731 60.8868 23.893C61.3221 24.2129 61.7969 24.3693 62.3192 24.3693C62.9998 24.3693 63.7041 24.1205 64.4322 23.6229C64.9862 23.2461 65.5164 22.7983 66.0229 22.2864C66.1021 22.4428 66.1891 22.585 66.2841 22.7272C67.0122 23.8219 68.1755 24.3693 69.7741 24.3693C70.8346 24.3693 71.8001 24.0068 72.6785 23.2817C73.557 22.5566 74.1505 21.604 74.4671 20.4239C74.9894 20.4025 75.4959 20.3528 75.9787 20.2817C75.9628 20.4879 75.9391 20.6869 75.9391 20.8931C75.9391 21.931 76.2319 22.7698 76.8175 23.4096C77.4032 24.0494 78.1866 24.3693 79.168 24.3693C80.4184 24.3693 81.4551 23.7722 82.2781 22.5779C82.4997 23.1324 82.8242 23.566 83.2595 23.8859C83.6947 24.2058 84.1696 24.3622 84.6919 24.3622C85.3725 24.3622 86.0768 24.1134 86.8049 23.6158C86.8999 23.5518 86.9869 23.4807 87.0819 23.4167C87.1136 23.7082 87.2006 23.9357 87.351 24.085C87.5409 24.2698 87.8891 24.3622 88.3956 24.3622C88.9654 24.3622 89.3848 24.2698 89.6539 24.085C89.923 23.9001 90.0734 23.5802 90.105 23.1253C90.2475 21.0637 90.6748 18.5187 91.3871 15.4761C91.4187 15.277 91.4346 15.1419 91.4346 15.0708C91.3792 14.5803 91.0389 14.3315 90.3583 14.3315ZM59.2803 20.1964C59.1378 20.8078 58.9083 21.2983 58.5918 21.6679C58.2752 22.0376 57.9428 22.2224 57.5946 22.2224C57.2464 22.2224 56.9773 22.1158 56.7795 21.9025C56.5816 21.6893 56.4866 21.3623 56.4866 20.9215C56.4866 20.1253 56.6528 19.3717 56.9852 18.6609C57.3176 17.95 57.7608 17.3812 58.3227 16.9476C58.8846 16.514 59.4939 16.2936 60.1587 16.2794L59.2803 20.1964ZM68.9827 11.0543C69.2993 9.60407 69.6396 8.45953 70.0116 7.61356C70.3835 6.7676 70.7238 6.34817 71.0404 6.34817C71.2461 6.34817 71.4044 6.46902 71.5231 6.71073C71.6418 6.95243 71.6972 7.30077 71.6972 7.75574C71.6972 8.77943 71.3886 9.94529 70.7634 11.2604C70.1382 12.5756 69.3072 14.0898 68.2626 15.8102C68.4288 14.0898 68.6662 12.5045 68.9827 11.0543ZM71.1195 21.5613C70.7396 21.931 70.3044 22.1158 69.8137 22.1158C69.3547 22.1158 68.959 21.9025 68.6187 21.476C68.2784 21.0495 68.1122 20.431 68.1122 19.6206C68.1122 18.6537 68.3259 17.886 68.7611 17.3102C69.1964 16.7343 69.7346 16.45 70.3835 16.45H70.4547C70.3914 16.7912 70.3598 17.0613 70.3598 17.2604C70.3598 17.8007 70.4943 18.3125 70.7475 18.7959C71.0087 19.2793 71.3807 19.6703 71.8713 19.9689C71.7526 20.6585 71.4994 21.1916 71.1195 21.5613ZM81.6529 20.1964C81.5105 20.8078 81.281 21.2983 80.9644 21.6679C80.6479 22.0376 80.3155 22.2224 79.9673 22.2224C79.6191 22.2224 79.35 22.1158 79.1521 21.9025C78.9543 21.6893 78.8593 21.3623 78.8593 20.9215C78.8593 20.1253 79.0255 19.3717 79.3579 18.6609C79.6903 17.95 80.1335 17.3812 80.6954 16.9476C81.2572 16.514 81.8666 16.2936 82.5314 16.2794L81.6529 20.1964Z" fill="white"/>
<path d="M126.842 12.9312C127.522 12.9312 128.068 12.7676 128.48 12.4334C128.891 12.0992 129.097 11.6512 129.097 11.0823C129.097 10.613 128.915 10.2503 128.551 9.99435C128.187 9.73835 127.712 9.61035 127.127 9.61035C126.478 9.61035 125.939 9.7739 125.504 10.1081C125.069 10.4423 124.855 10.8548 124.855 11.3526C124.855 11.8503 125.021 12.2343 125.354 12.5116C125.678 12.789 126.177 12.9312 126.842 12.9312Z" fill="white"/>
<path d="M170.542 19.9896C170.281 19.5702 169.901 19.0655 169.395 18.4683C169.047 18.0845 168.794 17.7646 168.627 17.5087C168.461 17.2528 168.382 17.0182 168.382 16.8049C168.382 16.4495 168.524 16.0159 168.809 15.504C168.92 15.3192 169.007 15.1344 169.071 14.9496C169.134 14.7647 169.165 14.6297 169.165 14.5444C169.165 14.388 169.078 14.2742 168.904 14.2032C168.73 14.1321 168.422 14.0965 167.978 14.0965C167.029 14.0965 166.404 14.4093 166.103 15.0349C165.628 16.0159 165.248 16.7907 164.955 17.3594C164.662 17.9281 164.378 18.4186 164.093 18.8309C163.681 19.4067 163.088 20.1389 162.312 21.0061C162.098 21.2052 161.893 21.3829 161.718 21.518C161.275 21.8592 160.84 22.0298 160.413 22.0298C160.08 22.0298 159.811 21.8521 159.598 21.4966C159.384 21.1412 159.249 20.5512 159.186 19.7266C160.642 17.4802 161.806 15.2979 162.676 13.1653C163.547 11.0327 163.982 9.17022 163.982 7.58499C163.982 6.46183 163.76 5.623 163.309 5.06853C162.858 4.51405 162.296 4.23682 161.616 4.23682C160.239 4.23682 159.131 5.2107 158.284 7.16558C157.437 9.12046 156.867 11.4734 156.567 14.2316C155.395 14.3453 154.343 14.7079 153.401 15.3263C152.459 15.9448 151.723 16.7409 151.185 17.7148C150.671 18.6532 150.402 19.6697 150.386 20.7573C150.069 21.0701 149.792 21.3189 149.563 21.5037C149.127 21.8521 148.755 22.0298 148.439 22.0298C147.98 22.0298 147.75 21.7454 147.75 21.1767C147.75 20.7787 147.901 19.9612 148.201 18.7243C148.55 17.2741 148.724 16.2718 148.724 15.7173C148.724 14.7932 148.209 14.3311 147.181 14.3311C146.658 14.3311 146.088 14.4946 145.463 14.8216C144.838 15.1486 144.205 15.696 143.556 16.4637C142.907 17.2314 142.321 18.2267 141.799 19.4493C141.862 18.8238 141.942 18.2977 142.037 17.8712C142.132 17.4447 142.258 16.9471 142.416 16.3784C142.654 15.5822 142.773 15.0704 142.773 14.8429C142.773 14.6439 142.709 14.5088 142.583 14.4377C142.456 14.3667 142.234 14.3311 141.918 14.3311C141.332 14.3311 140.881 14.4235 140.557 14.6155C140.232 14.8074 140.003 15.106 139.86 15.5183C139.322 17.0466 139.045 18.6603 138.998 20.345C138.459 20.8213 137.858 21.2336 137.185 21.5606C136.275 22.0085 135.468 22.2288 134.756 22.2288C133.648 22.2288 132.896 21.9018 132.5 21.2478C134.368 20.8355 135.69 20.2811 136.473 19.5773C137.257 18.8735 137.644 18.0347 137.644 17.0537C137.644 16.2149 137.367 15.5538 136.813 15.0633C136.259 14.5728 135.523 14.3311 134.605 14.3311C133.577 14.3311 132.659 14.5799 131.843 15.0775C131.028 15.5751 130.395 16.2433 129.936 17.0893C129.477 17.9352 129.248 18.8451 129.248 19.8261C129.248 20.146 129.271 20.4517 129.319 20.736C129.01 21.0417 128.741 21.2976 128.512 21.4824C128.084 21.8379 127.728 22.0156 127.443 22.0156C127.143 22.0156 126.929 21.9018 126.802 21.6744C126.676 21.4469 126.612 21.1199 126.612 20.6934C126.612 20.1389 126.802 19.0797 127.182 17.5158C127.483 16.222 127.633 15.3974 127.633 15.042C127.633 14.5586 127.23 14.3169 126.422 14.3169C125.9 14.3169 125.52 14.4022 125.283 14.5728C125.045 14.7434 124.855 15.0562 124.713 15.5111C124.428 16.3784 124.199 17.3096 124.017 18.312C124.009 18.3546 124.001 18.3973 123.993 18.4399C123.597 18.7029 123.249 18.8522 122.956 18.8522C122.56 18.8522 122.363 18.6034 122.363 18.1058C122.363 17.9636 122.426 17.6082 122.552 17.0395C122.695 16.3286 122.766 15.8808 122.766 15.696C122.766 14.7718 122.252 14.3098 121.223 14.3098C120.701 14.3098 120.131 14.4733 119.506 14.8003C118.88 15.1273 118.247 15.6746 117.598 16.4424C116.949 17.2101 116.364 18.2053 115.841 19.428C115.905 18.8025 115.984 18.2764 116.079 17.8499C116.174 17.4234 116.3 16.9258 116.459 16.3571C116.696 15.5609 116.815 15.0491 116.815 14.8216C116.815 14.6226 116.752 14.4875 116.625 14.4164C116.498 14.3453 116.277 14.3098 115.96 14.3098C115.509 14.3098 115.137 14.3667 114.844 14.4804C114.654 14.4377 114.417 14.4164 114.14 14.4164L110.056 14.4804C110.262 12.7459 110.46 10.8265 110.65 8.72949H111.718C112.731 8.72949 113.697 8.75081 114.623 8.79347C115.549 8.83612 116.475 8.89299 117.408 8.96407L118.239 9.02805C119.411 9.09914 119.996 8.64418 119.996 7.66319C119.996 7.36463 119.917 7.12293 119.751 6.93811C119.585 6.75328 119.284 6.63243 118.841 6.57556C116.783 6.31965 114.409 6.1917 111.726 6.1917C107.848 6.1917 104.904 6.58978 102.886 7.38595C100.868 8.18212 99.8633 9.46168 99.8633 11.2175C99.8633 11.7578 99.9503 12.2483 100.124 12.689C100.299 13.1297 100.481 13.4212 100.67 13.5634C100.971 13.7909 101.335 13.9046 101.763 13.9046C102.158 13.9046 102.514 13.8122 102.831 13.6202C103.148 13.4283 103.306 13.2079 103.306 12.952C103.306 12.8241 103.258 12.6961 103.163 12.5682C102.847 12.1274 102.689 11.6654 102.689 11.182C102.689 10.4853 103.037 9.95928 103.733 9.60385C104.43 9.24842 105.632 8.99962 107.342 8.85744C107.12 11.0896 106.915 12.9876 106.725 14.5444C106.297 14.5586 105.862 14.5657 105.419 14.5657C104.928 14.5657 104.556 14.6865 104.303 14.914C104.05 15.1486 103.923 15.4827 103.923 15.9234C103.923 16.2647 104.05 16.5277 104.311 16.7125C104.572 16.8973 104.881 16.9897 105.245 16.9897H106.384L106.242 18.1627C106.068 19.5844 105.68 20.6223 105.071 21.2834C104.461 21.9445 103.709 22.2715 102.807 22.2715C101.683 22.2715 100.742 21.8236 99.982 20.9279C99.6971 20.6009 99.4676 20.3806 99.2855 20.2668C99.1035 20.1531 98.9136 20.0962 98.7316 20.0962C98.4625 20.0962 98.2409 20.2242 98.0589 20.4801C97.8769 20.736 97.7898 21.0346 97.7898 21.3758C97.7898 21.717 97.8768 22.0085 98.051 22.2502C98.4783 22.8473 99.1431 23.352 100.045 23.7714C100.947 24.1908 101.937 24.397 103.013 24.397C104.912 24.397 106.4 23.8994 107.484 22.9041C108.569 21.9089 109.273 20.2384 109.605 17.8997L109.748 16.9826H113.491C113.198 18.1982 113.048 19.4493 113.048 20.7573C113.048 22.0085 113.174 22.9184 113.42 23.4871C113.665 24.0557 114.085 24.3401 114.686 24.3401C115.177 24.3401 115.533 24.2192 115.762 23.9847C115.992 23.7501 116.19 23.3022 116.364 22.634C116.601 21.7668 116.91 20.9422 117.29 20.1602C117.67 19.3783 118.049 18.7527 118.437 18.2764C118.825 17.8001 119.134 17.5655 119.371 17.5655C119.545 17.5655 119.632 17.6793 119.632 17.9068C119.632 18.0063 119.616 18.1982 119.585 18.4826C119.537 18.6958 119.514 18.9091 119.514 19.1223C119.514 19.7763 119.727 20.2953 120.162 20.6791C120.598 21.063 121.231 21.2549 122.07 21.2549C122.663 21.2549 123.225 21.1341 123.763 20.8995C123.779 21.916 124.009 22.7407 124.452 23.3662C124.919 24.0202 125.663 24.3472 126.691 24.3472C127.791 24.3472 128.955 23.7785 130.181 22.6625C130.316 22.826 130.458 22.9895 130.625 23.1316C131.543 23.942 132.833 24.3472 134.495 24.3472C135.713 24.3472 136.853 24.0771 137.921 23.5368C138.38 23.3093 138.784 23.0676 139.148 22.8188C139.203 23.0748 139.267 23.3093 139.346 23.4942C139.591 24.0629 140.011 24.3472 140.612 24.3472C141.103 24.3472 141.459 24.2264 141.688 23.9918C141.918 23.7572 142.116 23.3093 142.29 22.6411C142.527 21.7739 142.836 20.9493 143.224 20.1673C143.611 19.3854 143.991 18.7598 144.363 18.2835C144.735 17.8072 145.02 17.5727 145.226 17.5727C145.4 17.5727 145.487 17.6864 145.487 17.9139C145.487 18.2551 145.384 18.8735 145.178 19.7692C144.957 20.7929 144.846 21.5037 144.846 21.9018C144.846 22.698 145.052 23.3022 145.463 23.7216C145.875 24.1411 146.484 24.3472 147.291 24.3472C148.289 24.3472 149.175 24.1055 149.958 23.6221C150.299 23.416 150.623 23.1743 150.948 22.9113C151.058 23.0748 151.177 23.2311 151.312 23.3733C151.937 24.0202 152.728 24.3401 153.694 24.3401C154.359 24.3401 154.936 24.2121 155.435 23.9562C155.933 23.7003 156.511 23.1956 157.176 22.4421C157.809 23.7074 158.727 24.3401 159.93 24.3401C160.69 24.3401 161.457 24.0913 162.233 23.5866C163.008 23.0819 163.721 22.4776 164.37 21.7668C164.449 21.6815 164.52 21.589 164.575 21.4824C164.662 21.39 164.75 21.3047 164.829 21.2123C165.311 20.6578 165.794 19.9612 166.285 19.1223C166.506 19.3498 166.744 19.6128 166.997 19.9185C167.25 20.2242 167.456 20.537 167.622 20.864C167.788 21.191 167.876 21.5393 167.891 21.9089C167.749 21.8947 167.543 21.8734 167.266 21.8379C166.989 21.8023 166.752 21.7881 166.546 21.7881C165.96 21.7881 165.517 21.9232 165.216 22.1933C164.916 22.4634 164.765 22.7833 164.765 23.153C164.765 23.5795 164.979 23.9633 165.414 24.3046C165.85 24.6458 166.475 24.8164 167.298 24.8164C168.01 24.8164 168.643 24.6529 169.197 24.3259C169.751 23.9989 170.178 23.5724 170.487 23.0392C170.796 22.5061 170.946 21.9445 170.946 21.3474C170.938 20.8711 170.804 20.409 170.542 19.9896ZM159.653 11.5232C159.867 9.9735 160.128 8.72238 160.421 7.76271C160.721 6.80304 161.022 6.32676 161.323 6.32676C161.465 6.32676 161.584 6.47604 161.695 6.77461C161.798 7.07317 161.845 7.49258 161.845 8.03284C161.845 10.137 160.959 12.9165 159.186 16.3855C159.289 14.6865 159.447 13.0729 159.653 11.5232ZM132.081 19.556C132.081 18.6887 132.279 17.9494 132.682 17.3381C133.086 16.7267 133.577 16.4211 134.162 16.4211C134.447 16.4211 134.669 16.5064 134.835 16.6627C135.001 16.8262 135.088 17.0466 135.088 17.3096C135.088 17.8357 134.819 18.2977 134.281 18.6958C133.743 19.0939 133.007 19.3925 132.073 19.5915V19.556H132.081ZM155.403 21.8876C155.102 22.108 154.802 22.2146 154.501 22.2146C153.71 22.2146 153.314 21.6957 153.314 20.6578C153.314 19.6768 153.599 18.7882 154.176 17.985C154.754 17.1817 155.474 16.6627 156.345 16.4211C156.313 17.1888 156.297 17.7433 156.297 18.0845C156.297 19.037 156.377 19.8972 156.535 20.6649C156.076 21.262 155.696 21.6672 155.403 21.8876Z" fill="white"/>
</svg>
