<svg width="209" height="73" viewBox="0 0 209 73" fill="none" xmlns="http://www.w3.org/2000/svg">
<path d="M36.6861 46.8063C38.5091 46.8063 39.9869 45.4204 39.9869 43.7108C39.9869 42.0011 38.5091 40.6152 36.6861 40.6152C34.8631 40.6152 33.3853 42.0011 33.3853 43.7108C33.3853 45.4204 34.8631 46.8063 36.6861 46.8063Z" fill="#34AD64"/>
<path d="M43.51 52.6163C45.3329 52.6163 46.8107 51.2305 46.8107 49.521C46.8107 47.8116 45.3329 46.4258 43.51 46.4258C41.687 46.4258 40.2092 47.8116 40.2092 49.521C40.2092 51.2305 41.687 52.6163 43.51 52.6163Z" fill="#34AD64"/>
<path d="M39.5895 51.9411C39.3604 50.7663 37.6359 47.5134 30.7918 46.1869C23.9477 44.8542 21.4148 45.8711 21.2599 46.3322C21.1117 46.7933 27.4034 46.3259 32.7049 50.7979C38.0064 55.2698 35.2647 65.0286 35.0694 65.7486C34.874 66.4687 33.7827 70.2901 33.2438 72.9998H39.6636C39.6703 72.9935 39.8185 53.116 39.5895 51.9411Z" fill="#34AD64"/>
<path d="M49.0136 52.1053C42.1695 53.1602 40.3507 55.4088 40.2092 56.1983C40.0677 56.7858 40.2496 73 40.2496 73H46.4672C45.8879 70.8334 44.763 67.5805 44.763 67.5805C44.763 67.5805 43.2203 63.6959 44.0018 59.5081C44.7832 55.3204 54.6047 52.8191 56.6054 52.6548C58.6061 52.4906 55.8577 51.0505 49.0136 52.1053Z" fill="#34AD64"/>
<path d="M27.2013 24.9563C27.1879 24.9499 23.7187 23.472 22.1289 22.5499C20.5324 21.6277 18.6462 19.8845 18.6462 19.8845C18.6462 19.8845 21.0106 21.3182 22.1895 22.032C23.3684 22.7457 26.8982 23.6931 26.8982 23.6931V23.6994C26.8578 23.4404 26.8645 23.2004 26.9454 22.992C27.2957 22.1014 24.8167 18.8992 21.2532 17.3771C17.6896 15.8549 13.1898 16.7707 13.1898 16.7707C13.1898 16.7707 14.5842 20.6487 18.0062 23.9204C21.4283 27.1984 26.6692 27.3374 27.1744 26.3142C27.363 25.8973 27.3159 25.43 27.2013 24.9563Z" fill="#34AD64"/>
<path d="M19.9327 44.1206C19.2524 41.1015 15.0018 36.2254 9.96974 37.337C5.20043 38.3855 0 38.6003 0 38.6003C0 38.6003 2.64063 42.251 7.10007 44.1901C11.7279 46.6913 17.4336 47.3103 18.2419 45.8765C18.3362 45.7123 18.4305 45.567 18.5248 45.4407C17.9792 45.0617 15.5676 43.4132 13.9576 42.7437C12.1388 41.9921 8.94582 40.5962 8.94582 40.5962C8.94582 40.5962 12.5632 41.3099 14.3483 42.0236C16.1335 42.7374 19.0638 44.8975 19.0638 44.8975C19.5892 44.487 20.0068 44.4491 19.9327 44.1206Z" fill="#34AD64"/>
<path d="M24.9985 28.5127C24.9985 28.5127 22.2838 31.1215 20.492 35.4105C18.7001 39.6995 22.7621 43.8053 23.9746 43.8306C24.5674 43.8432 25.0255 43.5906 25.4633 43.3189C25.4633 43.3189 24.7493 41.0639 24.7493 39.5353C24.7493 38.0066 25.2747 36.1685 25.2747 36.1685C25.2747 36.1685 25.2747 38.7078 25.2747 39.7058C25.2747 40.7038 26.1841 42.902 26.1841 42.902C26.3997 42.801 26.622 42.7252 26.8712 42.7125C27.8884 42.6557 28.7371 41.645 28.7439 37.9308C28.7506 34.2293 24.9985 28.5127 24.9985 28.5127Z" fill="#34AD64"/>
<path d="M13.9442 48.7953C13.8162 48.189 11.6404 46.4584 7.99601 46.8374C4.3449 47.2163 1.44153 49.7111 1.44153 49.7111C1.44153 49.7111 2.50587 50.9932 6.54769 52.5975C10.0304 53.9806 12.7788 51.5111 13.4053 50.3427C13.4053 50.3427 11.573 49.8943 10.5154 49.9006C9.45781 49.9069 6.53422 49.8943 6.53422 49.8943C6.53422 49.8943 8.94584 49.3069 10.5154 49.3069C12.085 49.3069 13.5805 49.5216 13.5805 49.5216C13.7085 49.2374 14.0385 49.2564 13.9442 48.7953Z" fill="#34AD64"/>
<path d="M24.3989 51.8209V51.8272C24.3989 51.8272 24.3989 51.3535 20.4986 52.2314C16.5983 53.1094 16.1605 52.8252 16.1605 52.8252C16.1605 52.8252 18.1544 52.5536 20.566 51.8651C22.9776 51.1766 24.8368 50.7976 24.8368 50.7976C24.985 50.4565 25.0726 50.147 24.9513 49.9512C24.6145 49.4206 20.9769 47.3678 16.9755 49.907C12.9742 52.4462 11.8358 54.6822 11.8358 54.6822C11.8358 54.6822 13.2975 55.5539 17.6829 55.7876C22.0614 56.0213 24.756 53.1094 24.4124 52.4588C24.3046 52.282 24.3248 52.0609 24.3989 51.8209Z" fill="#34AD64"/>
<path d="M16.6859 27.1547C14.5034 24.0595 10.118 22.5435 10.118 22.5435C10.118 22.5435 8.61585 26.7251 9.65997 31.2226C10.7041 35.7264 16.3761 37.2424 17.4 36.636C17.7031 36.4529 17.9052 36.2191 18.0669 35.9601C18.0601 35.9538 15.7631 33.7114 15.3454 32.9976C14.921 32.2838 13.4929 28.3232 13.4929 28.3232C13.4929 28.3232 14.9008 31.0205 15.7833 32.1891C16.6657 33.3577 18.6125 34.8484 18.6125 34.8484C18.7472 34.6021 18.9022 34.381 19.138 34.2167C19.953 33.6419 18.8618 30.2498 16.6859 27.1547Z" fill="#34AD64"/>
<path d="M35.7766 28.8541C32.1929 24.9758 29.7342 24.4136 29.7342 24.4136C29.7342 24.4136 29.4647 27.6856 29.5321 32.6504C29.5995 37.6152 34.4698 39.6934 35.4465 39.0996C35.844 38.8533 36.1404 38.4554 36.4098 38.0258C36.1943 38.1522 33.9444 36.1435 32.9205 33.9706C31.8763 31.7535 31.7214 28.8036 31.7214 28.8036C31.7214 28.8036 32.9676 32.8589 33.9309 33.9706C34.8942 35.0823 36.8342 37.331 36.8342 37.331C37.0633 36.952 37.2923 36.6172 37.5752 36.4088C38.3364 35.8403 39.3536 32.7388 35.7766 28.8541Z" fill="#34AD64"/>
<path d="M35.4129 14.2C34.6651 10.5933 32.8396 7.32764 32.8396 7.32764C32.8396 7.32764 28.7035 11.0101 27.8412 15.5201C26.979 20.0364 30.0507 23.2199 31.2296 23.0115C31.9504 22.8851 32.6375 22.3419 33.2774 21.8871L32.7048 22.2914C32.7048 22.2914 32.0312 18.4699 32.0312 17.2824C32.0312 16.0949 32.4691 13.7768 32.4691 13.7768C32.4691 13.7768 32.4691 16.1897 32.4691 17.0803C32.4691 17.9709 33.3852 21.8176 33.3852 21.8176L33.3583 21.8366C33.7422 21.565 34.1127 21.3313 34.4698 21.2428C35.4465 20.9902 36.1673 17.8067 35.4129 14.2Z" fill="#34AD64"/>
<path d="M45.0055 37.9123C43.8738 35.2407 42.5198 33.9648 42.5198 33.9648C42.5198 33.9648 41.9741 34.7543 41.031 37.4007C40.0879 40.0408 41.4756 42.6366 42.3513 42.5103C42.8431 42.4408 43.0991 42.3019 43.3281 42.1629C43.3281 42.1566 43.0048 40.9945 42.8229 40.1671C42.641 39.3397 42.8229 38.3228 42.8229 38.3228C42.8229 38.3228 42.9374 38.9923 43.2271 39.9018C43.51 40.8113 43.7256 41.9419 43.7256 41.9419C43.7795 41.9166 43.8333 41.8977 43.894 41.8787C44.4127 41.7082 46.1439 40.584 45.0055 37.9123Z" fill="#34AD64"/>
<path d="M44.81 23.9205C44.4126 18.8044 42.1829 16.1895 42.1829 16.1895C42.1829 16.1895 38.4509 18.7854 37.0228 21.4256C35.5947 24.0658 36.4367 27.9629 37.5954 28.0324C37.8581 28.045 38.1141 28.1713 38.3701 28.3482L38.3499 28.3292C38.3499 28.3292 39.4209 26.8386 39.9868 25.4806C40.5526 24.1226 41.3543 21.4446 41.3543 21.4446C41.3543 21.4446 40.7884 24.8364 40.391 25.8533C39.9868 26.8702 38.9225 28.7966 38.9225 28.7966C39.5894 29.4219 40.2293 30.1925 40.8221 30.1862C41.7989 30.1673 45.2075 29.0367 44.81 23.9205Z" fill="#34AD64"/>
<path d="M53.783 34.356C53.783 34.356 52.5367 35.0381 49.4919 37.7984C46.447 40.565 46.3729 44.5823 47.572 44.9171C48.0435 45.0497 48.3938 45.075 48.697 45.0623C48.7037 45.056 49.4851 43.2432 49.8691 42.1568C50.2531 41.064 51.6408 39.1944 51.6408 39.1944C51.6408 39.1944 50.6977 41.462 50.3541 42.3273C50.0981 42.9842 49.795 44.3486 49.6603 44.9739C49.7546 44.9739 49.8556 44.9739 49.9634 44.9865C50.7381 45.075 53.7021 44.6518 54.1467 40.6787C54.5981 36.7057 53.783 34.356 53.783 34.356Z" fill="#34AD64"/>
<path d="M44.1028 6.11448C41.5699 1.56652 38.4173 0 38.4173 0C38.4173 0 37.6022 1.49704 36.4503 6.34188C35.2984 11.1867 39.6164 15.3052 40.7077 14.9388C41.3342 14.724 41.7383 14.3577 42.1358 14.0103C42.1358 14.0103 40.5729 11.3889 40.2159 9.35491C39.8589 7.32096 39.7242 4.66166 39.7242 4.66166C39.7242 4.66166 40.802 7.4536 41.3611 9.33596C41.927 11.2246 43.1058 13.347 43.1058 13.347C43.9883 12.9743 46.6357 10.6688 44.1028 6.11448Z" fill="#34AD64"/>
<path d="M49.8085 24.9565C49.8085 24.9565 46.7569 27.1105 45.3894 29.3971C44.0219 31.6901 45.1873 35.0253 46.09 35.139C46.2584 35.1579 46.3931 35.1958 46.5211 35.2464L46.4942 35.2337C46.4942 35.2337 47.2284 34.3052 47.6259 32.4228C48.0301 30.5405 48.5083 29.334 48.5083 29.334C48.5083 29.334 48.2389 31.1532 48.0637 32.2839C47.8953 33.4208 47.0533 35.5243 47.0533 35.5243C47.3093 35.6885 47.5518 35.8401 47.9358 35.8591C48.7037 35.897 51.0547 36.1181 51.0345 32.088C51.021 28.0517 49.8085 24.9565 49.8085 24.9565Z" fill="#34AD64"/>
<path d="M53.6346 14.7492C51.6609 9.96136 48.7171 8.07275 48.7171 8.07275C48.7171 8.07275 47.7336 9.475 46.0092 14.1681C44.2847 18.8612 46.8377 23.4658 49.2156 23.1563C49.6198 23.1058 49.9297 23.0363 50.1789 22.9669C50.1722 22.9353 49.2022 19.2086 49.2022 17.6295C49.2022 16.0441 49.4447 13.2206 49.4447 13.2206C49.4447 13.2206 49.7141 16.5557 49.8825 17.9137C50.0172 19.0128 50.7852 21.4699 51.0681 22.4489C51.2702 22.2026 51.3376 21.9689 51.7822 21.8299C52.705 21.552 55.6151 19.537 53.6346 14.7492Z" fill="#34AD64"/>
<path d="M68.1111 17.0801C68.1111 17.0801 65.9151 17.3706 59.886 19.5877C53.8503 21.8048 51.4252 27.3634 53.6819 29.0183C53.6819 29.0183 57.5553 26.7254 59.1855 25.4242C60.8156 24.123 63.106 22.2912 63.106 22.2912C63.106 22.2912 60.8897 24.6915 59.0642 26.2138C57.6159 27.4202 55.4805 29.2078 54.6519 29.8963C55.4131 30.8501 54.6317 31.1912 55.4535 31.6081C56.4977 32.1324 62.5132 31.3428 65.5917 26.1064C68.677 20.87 68.1111 17.0801 68.1111 17.0801Z" fill="#34AD64"/>
<path d="M61.5431 32.347C57.151 33.2629 54.827 37.0777 56.1204 38.5557L60.243 36.1745L64.3724 33.9639L60.499 36.7682L56.7401 39.1936C57.3733 39.7431 57.3599 39.2883 57.8651 39.6925C58.4983 40.1978 61.6644 41.2526 64.4869 37.7851C67.3094 34.3176 67.4643 31.4754 67.4643 31.4754C67.4643 31.4754 65.9352 31.4312 61.5431 32.347Z" fill="#34AD64"/>
<path d="M56.7428 39.1936L56.1281 38.5625C56.3848 38.8528 56.5807 39.0548 56.7428 39.1936Z" fill="#34AD64"/>
<path d="M60.3575 41.6009C54.4161 42.3273 52.9678 47.4057 54.1601 48.309C54.6384 48.669 55.0291 48.8585 55.3861 48.9785C55.3861 48.9785 57.279 46.8878 58.4444 46.0414C59.6098 45.195 62.951 43.319 62.951 43.319C62.951 43.319 58.9968 46.0856 58.3973 46.7804C57.9863 47.2541 56.9153 48.4921 56.2753 49.2375C56.4774 49.3006 56.6728 49.3701 56.8816 49.4838C57.7236 49.9323 61.3814 50.8418 64.1231 46.8057C66.8581 42.7695 67.2353 39.8955 67.2353 39.8955C67.2353 39.8955 66.299 40.8746 60.3575 41.6009Z" fill="#34AD64"/>
<path d="M57.233 54.3979C57.0912 54.4863 56.9763 54.5682 56.9088 54.6376C56.8885 54.6566 56.8683 54.6755 56.8412 54.6944L57.233 54.3979Z" fill="#34AD64"/>
<path d="M61.8665 55.1369C59.8052 53.3809 58.0201 53.9241 57.2454 54.3916L58.9429 55.8001L60.755 56.9244L57.9796 55.8001L56.592 54.8842L56.5987 54.8779C56.2619 55.099 55.8981 55.2379 55.467 55.819C54.9079 56.5833 57.1578 58.8824 60.5596 59.0277C63.9614 59.173 65.1066 58.9772 65.1066 58.9772C65.1066 58.9772 64.3252 57.2276 61.8665 55.1369Z" fill="#34AD64"/>
<path d="M71.1559 49.4079C65.8342 46.8182 61.5566 50.21 61.981 51.5933C62.0012 51.6691 62.0281 51.7386 62.0551 51.808C62.5131 51.7196 64.4599 51.3785 66.3057 51.3785C68.4142 51.3785 71.5533 51.827 71.5533 51.827C71.5533 51.827 67.6328 51.8396 66.1238 52.2249C65.0191 52.5092 63.2878 52.585 62.4458 52.6102C62.8095 53.1724 63.2137 53.4503 63.4967 54.0124C63.9143 54.8336 66.3663 57.5369 71.0683 55.6926C75.7702 53.8482 77.8316 51.688 77.8316 51.688C77.8316 51.688 76.4776 51.9975 71.1559 49.4079Z" fill="#34AD64"/>
<path d="M70.9402 40.5453C68.7644 41.3286 67.1544 43.8489 67.754 44.43C67.8954 44.569 67.9763 44.7648 68.0167 44.9922C68.5421 44.7964 69.5526 44.3858 70.4418 43.8173C71.7014 43.0151 72.6715 42.3898 72.6715 42.3898C72.6715 42.3898 71.6745 43.5899 70.0174 44.5753C69.0608 45.1501 68.4343 45.5165 68.084 45.7313C68.0975 46.2998 68.0908 46.8683 68.3737 47.1083C68.9193 47.5568 71.3848 48.5232 73.8773 45.5355C76.3697 42.5477 76.5381 40.0842 76.5381 40.0842C76.5381 40.0842 73.1161 39.762 70.9402 40.5453Z" fill="#34AD64"/>
<path d="M94.4097 19.4614H98.7749V38.0445H111.069V41.5122H94.4097V19.4614Z" fill="#34AD64"/>
<path d="M131.534 36.4085H119.779L117.461 41.5122H112.962L123.544 19.4614H127.842L138.459 41.5122H133.891L131.534 36.4085ZM130.085 33.1934L125.653 23.5545L121.254 33.1934H130.085Z" fill="#34AD64"/>
<path d="M149.776 33.7303V41.5122H145.41V33.7935L136.175 19.4614H140.843L147.728 30.2057L154.68 19.4614H158.977L149.776 33.7303Z" fill="#34AD64"/>
<path d="M175.273 36.4085H163.518L161.2 41.5122H156.701L167.283 19.4614H171.581L182.198 41.5122H177.63L175.273 36.4085ZM173.824 33.1934L169.392 23.5545L164.993 33.1934H173.824Z" fill="#34AD64"/>
<path d="M206.408 19.4614V41.5122H202.811L189.843 26.5801V41.5122H185.512V19.4614H189.109L202.076 34.3935V19.4614H206.408Z" fill="#34AD64"/>
<path d="M101.106 55.1119H103.228V59.6154C102.608 60.0765 101.88 60.4365 101.058 60.6829C100.237 60.9292 99.3811 61.0555 98.5121 61.0555C97.2861 61.0555 96.1746 60.8029 95.1844 60.3039C94.1941 59.8049 93.4195 59.1101 92.8604 58.2258C92.2945 57.3415 92.0183 56.3436 92.0183 55.2382C92.0183 54.1329 92.3012 53.1349 92.8604 52.2506C93.4195 51.3663 94.2009 50.6778 95.1979 50.1725C96.1881 49.6736 97.3063 49.4209 98.5458 49.4209C99.5563 49.4209 100.472 49.5788 101.301 49.8883C102.13 50.1978 102.823 50.6589 103.383 51.2589L101.968 52.5538C101.052 51.6948 99.9403 51.2589 98.6401 51.2589C97.7914 51.2589 97.0369 51.4232 96.3767 51.7579C95.7166 52.0927 95.1979 52.5601 94.8274 53.1665C94.4569 53.7728 94.2682 54.4613 94.2682 55.2319C94.2682 55.9835 94.4569 56.6657 94.8274 57.2657C95.1979 57.8721 95.7166 58.3458 96.3767 58.6869C97.0369 59.0343 97.7846 59.2049 98.6267 59.2049C99.5698 59.2049 100.392 59.009 101.106 58.6237V55.1119Z" fill="#34AD64"/>
<path d="M114.06 60.8908L111.594 57.5811C111.493 57.5938 111.338 57.6001 111.129 57.6001H108.408V60.8971H106.171V49.585H111.136C112.18 49.585 113.09 49.7492 113.864 50.0713C114.639 50.3934 115.232 50.8545 115.649 51.4608C116.06 52.0672 116.269 52.7809 116.269 53.6083C116.269 54.461 116.047 55.1937 115.609 55.8063C115.164 56.419 114.531 56.8801 113.703 57.1769L116.478 60.8908H114.06ZM113.251 51.9409C112.746 51.5556 112.005 51.3598 111.028 51.3598H108.408V55.8632H111.028C112.005 55.8632 112.746 55.6674 113.251 55.2758C113.756 54.8842 114.012 54.3284 114.012 53.602C114.012 52.8883 113.756 52.3325 113.251 51.9409Z" fill="#34AD64"/>
<path d="M127.808 59.1349V60.8971H118.762V49.585H127.566V51.3472H121.005V54.2841H126.825V56.0148H121.005V59.1349H127.808Z" fill="#34AD64"/>
<path d="M139.348 59.1349V60.8971H130.301V49.585H139.105V51.3472H132.544V54.2841H138.364V56.0148H132.544V59.1349H139.348Z" fill="#34AD64"/>
<path d="M152.565 49.585V60.891H150.719L144.07 53.2357V60.891H141.847V49.585H143.693L150.342 57.2402V49.585H152.565Z" fill="#34AD64"/>
<path d="M168.247 50.0713C169.021 50.3934 169.614 50.8545 170.032 51.4608C170.443 52.0672 170.652 52.7809 170.652 53.6083C170.652 54.4294 170.443 55.1431 170.032 55.7495C169.621 56.3558 169.021 56.8232 168.247 57.1453C167.472 57.4675 166.563 57.6317 165.518 57.6317H162.797V60.8971H160.56V49.585H165.525C166.563 49.585 167.472 49.7492 168.247 50.0713ZM167.64 55.2695C168.146 54.8842 168.395 54.3284 168.395 53.6083C168.395 52.8883 168.139 52.3325 167.64 51.9472C167.135 51.5619 166.394 51.3661 165.417 51.3661H162.797V55.8568H165.417C166.394 55.8505 167.135 55.661 167.64 55.2695Z" fill="#34AD64"/>
<path d="M180.109 58.2761H174.08L172.895 60.891H170.584L176.014 49.585H178.216L183.659 60.891H181.315L180.109 58.2761ZM179.368 56.6276L177.091 51.6819L174.835 56.6276H179.368Z" fill="#34AD64"/>
<path d="M193.083 60.8908L190.618 57.5811C190.517 57.5938 190.362 57.6001 190.153 57.6001H187.432V60.8971H185.195V49.585H190.16C191.204 49.585 192.113 49.7492 192.888 50.0713C193.663 50.3934 194.256 50.8545 194.673 51.4608C195.084 52.0672 195.293 52.7809 195.293 53.6083C195.293 54.461 195.071 55.1937 194.626 55.8063C194.182 56.419 193.548 56.8801 192.72 57.1769L195.495 60.8908H193.083ZM192.275 51.9409C191.77 51.5556 191.029 51.3598 190.052 51.3598H187.432V55.8632H190.052C191.029 55.8632 191.77 55.6674 192.275 55.2758C192.78 54.8842 193.03 54.3284 193.03 53.602C193.03 52.8883 192.78 52.3325 192.275 51.9409Z" fill="#34AD64"/>
<path d="M201.935 56.16L200.022 58.0043V60.8971H197.785V49.585H200.022V55.3831L205.984 49.585H208.496L203.43 54.6378L208.806 60.8908H206.186L201.935 56.16Z" fill="#34AD64"/>
</svg>
