<svg width="95" height="95" viewBox="0 0 95 95" fill="none" xmlns="http://www.w3.org/2000/svg">
<path d="M45.4656 53.3708C45.4656 55.2684 44.64 56.9288 42.9888 58.3521L6.36872 94.1105C5.77903 94.5849 5.2483 94.8221 4.77654 94.8221C4.30478 94.9407 4.00994 95 3.89201 95C2.83055 95 1.946 94.5849 1.23837 93.7547C0.412789 93.0431 2.48845e-07 92.1535 3.42161e-07 91.0861L2.09962e-06 70.9831C2.27588e-06 68.9669 0.235888 67.4251 0.707644 66.3577C1.1794 65.2903 2.00498 64.1635 3.18437 62.9775L19.1062 47.5L3.18437 32.0225C2.00498 30.8364 1.1794 29.7097 0.707647 28.6423C0.235892 27.5749 6.02928e-06 26.0331 6.20554e-06 24.0168L7.963e-06 3.91387C8.05632e-06 2.84645 0.412797 1.89764 1.23837 1.06743C1.94601 0.355819 2.83056 -8.05771e-06 3.89201 -7.96491e-06C4.00995 -7.9546e-06 4.30479 -7.92883e-06 4.77655 -7.88759e-06C5.24831 0.118599 5.77904 0.4151 6.36873 0.889511L42.9888 36.6479C44.64 38.0712 45.4656 39.7316 45.4656 41.6292L45.4656 53.3708ZM95 53.3708C95 55.2684 94.1744 56.9288 92.5233 58.3521L55.9032 94.1105C55.3135 94.5849 54.7827 94.8221 54.311 94.8221C53.8392 94.9407 53.5444 95 53.4264 95C52.365 95 51.4804 94.5849 50.7728 93.7547C49.9472 93.0431 49.5345 92.1535 49.5345 91.0861L49.5345 70.9831C49.5345 68.9669 49.7703 67.4251 50.2421 66.3577C50.7139 65.2903 51.5394 64.1635 52.7188 62.9775L68.6406 47.5L52.7188 32.0225C51.5394 30.8365 50.7139 29.7097 50.2421 28.6423C49.7703 27.5749 49.5345 26.0331 49.5345 24.0168L49.5345 3.91388C49.5345 2.84645 49.9473 1.89764 50.7728 1.06743C51.4805 0.355824 52.365 -3.72727e-06 53.4265 -3.63448e-06C53.5444 -3.62417e-06 53.8392 -3.59839e-06 54.311 -3.55715e-06C54.7828 0.118603 55.3135 0.415104 55.9032 0.889515L92.5233 36.6479C94.1744 38.0712 95 39.7316 95 41.6292L95 53.3708Z" fill="#95D3F5"/>
</svg>
