<svg width="95" height="95" viewBox="0 0 95 95" fill="none" xmlns="http://www.w3.org/2000/svg">
<path d="M49.5344 41.6292C49.5344 39.7316 50.36 38.0712 52.0112 36.6479L88.6313 0.889514C89.221 0.415107 89.7517 0.177899 90.2235 0.177899C90.6952 0.0592989 90.9901 0 91.108 0C92.1694 0 93.054 0.415104 93.7616 1.24531C94.5872 1.95693 95 2.84645 95 3.91387V24.0169C95 26.0331 94.7641 27.5749 94.2924 28.6423C93.8206 29.7097 92.995 30.8365 91.8156 32.0225L75.8938 47.5L91.8156 62.9775C92.995 64.1635 93.8206 65.2903 94.2924 66.3577C94.7641 67.4251 95 68.9669 95 70.9831V91.0861C95 92.1535 94.5872 93.1024 93.7616 93.9326C93.054 94.6442 92.1694 95 91.108 95C90.9901 95 90.6952 95 90.2235 95C89.7517 94.8814 89.221 94.5849 88.6313 94.1105L52.0112 58.3521C50.36 56.9288 49.5344 55.2684 49.5344 53.3708V41.6292ZM0 41.6292C0 39.7316 0.825574 38.0712 2.47672 36.6479L39.0968 0.889514C39.6865 0.415107 40.2173 0.177899 40.689 0.177899C41.1608 0.0592989 41.4556 0 41.5736 0C42.635 0 43.5196 0.415104 44.2272 1.24531C45.0528 1.95693 45.4655 2.84645 45.4655 3.91387V24.0169C45.4655 26.0331 45.2297 27.5749 44.7579 28.6423C44.2862 29.7097 43.4606 30.8365 42.2812 32.0225L26.3594 47.5L42.2812 62.9775C43.4606 64.1635 44.2862 65.2903 44.7579 66.3577C45.2297 67.4251 45.4655 68.9669 45.4655 70.9831V91.0861C45.4655 92.1535 45.0528 93.1024 44.2272 93.9326C43.5196 94.6442 42.635 95 41.5736 95C41.4556 95 41.1608 95 40.689 95C40.2173 94.8814 39.6865 94.5849 39.0968 94.1105L2.47672 58.3521C0.825574 56.9288 0 55.2684 0 53.3708V41.6292Z" fill="#95D3F5"/>
</svg>
