<svg width="225" height="44" viewBox="0 0 225 44" fill="none" xmlns="http://www.w3.org/2000/svg">
<path d="M73.392 12.0898C72.6509 11.2572 71.6661 10.6422 70.4275 10.2354C69.1889 9.82857 67.8284 9.62988 66.3462 9.62988C64.3563 9.62988 62.6303 9.92318 61.1582 10.5098C59.6861 11.0964 58.5592 11.9195 57.7774 12.9791C56.9957 14.0388 56.6099 15.2498 56.6099 16.6122C56.6099 17.9178 56.9551 19.0059 57.6556 19.8858C58.3561 20.7657 59.1988 21.4563 60.1836 21.9672C61.1684 22.4781 62.4374 23.0174 64.0009 23.5851C65.2192 24.0392 66.1634 24.4177 66.8335 24.7299C67.5036 25.0421 68.062 25.43 68.5087 25.8936C68.9554 26.3572 69.1787 26.9059 69.1787 27.5493C69.1787 28.59 68.6914 29.3942 67.7168 29.9714C66.7421 30.5485 65.3918 30.8323 63.6659 30.8323C62.0009 30.8323 60.7115 30.6242 59.7876 30.2079C58.8637 29.7916 58.4069 29.1577 58.4069 28.3062C58.4069 28.098 58.4272 27.8994 58.4576 27.7101C58.4881 27.5209 58.4983 27.3885 58.4983 27.3128C58.5592 27.0289 58.5896 26.6978 58.5896 26.3193C58.5896 25.9031 58.417 25.5625 58.0718 25.2975C57.7267 25.0326 57.2799 24.9002 56.7317 24.9002C55.9804 24.9002 55.4119 25.1746 55.0261 25.7233C54.6403 26.272 54.4474 27.0668 54.4474 28.1075C54.4474 30.0754 55.2596 31.5324 56.884 32.488C58.5084 33.4436 60.6709 33.9166 63.3613 33.9166C66.4071 33.9166 68.8335 33.3206 70.6509 32.119C72.4682 30.9175 73.3717 29.205 73.3717 26.9722C73.3717 25.7801 73.0367 24.7772 72.3869 23.9635C71.727 23.1499 70.9351 22.5065 70.0011 22.0334C69.0671 21.5604 67.8284 21.0306 66.2853 20.444C65.006 19.9709 64.0111 19.5641 63.3004 19.2235C62.5897 18.8829 62.0009 18.4571 61.5237 17.9462C61.0465 17.4353 60.813 16.8204 60.813 16.1013C60.813 15.0227 61.2699 14.1902 62.1938 13.5941C63.1177 12.9981 64.4476 12.7048 66.1939 12.7048C67.4325 12.7048 68.4681 12.9129 69.3006 13.3292C70.1331 13.7455 70.5493 14.351 70.5493 15.1457C70.5493 15.2971 70.5189 15.6566 70.458 16.2243C70.397 16.5271 70.3666 16.8582 70.3666 17.2177C70.3666 17.634 70.5392 17.9935 70.8945 18.2963C71.2499 18.5991 71.6864 18.7504 72.2143 18.7504C72.9656 18.7504 73.5342 18.4477 73.92 17.8422C74.3058 17.2366 74.4987 16.3378 74.4987 15.1457C74.5088 13.9442 74.1332 12.9224 73.392 12.0898Z" fill="#231F20"/>
<path d="M124.145 14.7008C123.678 14.3602 123.069 14.1899 122.317 14.1899C121.485 14.1899 120.794 14.4075 120.236 14.8522C119.678 15.2969 119.404 15.8456 119.404 16.5079C119.404 17.1702 119.617 17.6811 120.043 18.0501C120.47 18.4191 121.109 18.5989 121.962 18.5989C122.835 18.5989 123.536 18.3812 124.064 17.9366C124.592 17.4919 124.855 16.8958 124.855 16.1389C124.835 15.524 124.602 15.0414 124.145 14.7008Z" fill="#231F20"/>
<path d="M121.616 20.4817C120.784 20.4817 120.185 20.5952 119.809 20.8318C119.433 21.0683 119.169 21.4846 119.007 22.0617C118.469 24.0959 118.042 26.3003 117.728 28.6561C117.179 29.2427 116.702 29.6968 116.337 30.0185C115.789 30.4821 115.322 30.7187 114.936 30.7187C114.692 30.7187 114.489 30.6335 114.347 30.4632C114.205 30.2929 114.124 30.0658 114.124 29.782C114.124 28.9305 114.357 27.4167 114.824 25.2407C115.129 23.7458 115.281 22.7997 115.281 22.4023C115.281 21.74 114.783 21.4089 113.788 21.4089C113.321 21.4089 112.875 21.4467 112.448 21.5224C112.347 21.1061 112.225 20.8223 112.073 20.6615C111.92 20.5006 111.626 20.4249 111.179 20.4249C109.778 20.4249 108.458 20.8318 107.21 21.6549C105.961 22.478 104.966 23.566 104.215 24.919C104.164 25.023 104.123 25.1271 104.072 25.2217C103.088 25.4299 102.204 25.5623 101.453 25.6096C101.291 24.2094 100.783 23.0362 99.9302 22.0806C99.0774 21.1251 97.9708 20.6047 96.6104 20.5101C98.0723 18.826 99.118 17.2176 99.7475 15.6944C100.377 14.1617 100.692 12.6195 100.692 11.0679C100.692 9.87576 100.407 8.91072 99.8389 8.16329C99.2703 7.41586 98.519 7.04688 97.585 7.04688C95.8591 7.04688 94.3768 8.04976 93.128 10.065C91.8793 12.0802 90.9351 14.5212 90.2853 17.3784C89.6356 20.2452 89.3107 22.8943 89.3107 25.3353C89.3107 26.376 89.3817 27.3316 89.5137 28.1831C88.7624 29.0062 88.1431 29.6306 87.666 30.028C87.1177 30.4916 86.6507 30.7281 86.2649 30.7281C86.0212 30.7281 85.8182 30.643 85.6761 30.4727C85.5339 30.3024 85.4527 30.0753 85.4527 29.7915C85.4527 28.94 85.6862 27.4262 86.1532 25.2501C86.4578 23.7553 86.6101 22.8091 86.6101 22.4118C86.6101 21.7495 86.1126 21.4183 85.1177 21.4183C84.6506 21.4183 84.2039 21.4562 83.7775 21.5319C83.676 21.1156 83.5542 20.8318 83.4019 20.6709C83.2496 20.5101 82.9552 20.4344 82.5085 20.4344C81.1074 20.4344 79.7876 20.8412 78.5388 21.6643C77.29 22.4875 76.2951 23.5755 75.5438 24.9284C74.7925 26.2814 74.4169 27.71 74.4169 29.2238C74.4169 30.6051 74.7925 31.7215 75.5438 32.573C76.2951 33.4245 77.3002 33.8503 78.5591 33.8503C80.1632 33.8503 81.4932 33.0556 82.5491 31.4661C82.8333 32.2041 83.2496 32.7812 83.808 33.2069C84.3664 33.6327 84.9755 33.8408 85.6456 33.8408C86.5187 33.8408 87.4223 33.5097 88.3563 32.8474C89.067 32.346 89.7472 31.7499 90.397 31.0687C90.4985 31.2769 90.6102 31.4661 90.732 31.6553C91.6661 33.1123 93.1585 33.8408 95.2093 33.8408C96.5697 33.8408 97.8084 33.3583 98.9353 32.3933C100.062 31.4282 100.824 30.1604 101.23 28.5899C101.9 28.5615 102.55 28.4953 103.169 28.4007C103.149 28.675 103.118 28.94 103.118 29.2143C103.118 30.5957 103.494 31.7121 104.245 32.5636C104.996 33.4151 106.001 33.8408 107.26 33.8408C108.864 33.8408 110.194 33.0461 111.25 31.4566C111.535 32.1946 111.951 32.7717 112.509 33.1975C113.068 33.6232 113.677 33.8314 114.347 33.8314C115.22 33.8314 116.124 33.5002 117.058 32.8379C117.179 32.7528 117.291 32.6582 117.413 32.573C117.454 32.9609 117.565 33.2637 117.758 33.4624C118.002 33.7084 118.449 33.8314 119.098 33.8314C119.829 33.8314 120.367 33.7084 120.713 33.4624C121.058 33.2164 121.251 32.7906 121.291 32.1851C121.474 29.4414 122.022 26.0543 122.936 22.0049C122.977 21.74 122.997 21.5603 122.997 21.4657C122.926 20.8128 122.489 20.4817 121.616 20.4817ZM81.747 28.2871C81.5643 29.1008 81.2698 29.7536 80.8637 30.2456C80.4576 30.7376 80.0312 30.9836 79.5845 30.9836C79.1378 30.9836 78.7926 30.8416 78.5388 30.5578C78.285 30.274 78.1632 29.8388 78.1632 29.2522C78.1632 28.1925 78.3764 27.1896 78.8028 26.2435C79.2292 25.2974 79.7977 24.5405 80.5186 23.9634C81.2394 23.3863 82.0211 23.093 82.8739 23.074L81.747 28.2871ZM94.194 16.1201C94.6002 14.19 95.0367 12.6668 95.5139 11.5409C95.9911 10.415 96.4276 9.85683 96.8337 9.85683C97.0977 9.85683 97.3007 10.0177 97.453 10.3394C97.6053 10.661 97.6764 11.1246 97.6764 11.7301C97.6764 13.0925 97.2804 14.6442 96.4784 16.3945C95.6763 18.1448 94.6103 20.16 93.2702 22.4496C93.4834 20.16 93.7879 18.0502 94.194 16.1201ZM96.9352 30.1037C96.4479 30.5957 95.8895 30.8416 95.2601 30.8416C94.6712 30.8416 94.1636 30.5578 93.727 29.9901C93.2905 29.4225 93.0773 28.5994 93.0773 27.5208C93.0773 26.2341 93.3514 25.2123 93.9098 24.4459C94.4682 23.6796 95.1585 23.3011 95.9911 23.3011H96.0824C96.0012 23.7553 95.9606 24.1148 95.9606 24.3797C95.9606 25.0987 96.1332 25.7799 96.4581 26.4233C96.7931 27.0667 97.2703 27.587 97.8997 27.9844C97.7474 28.9021 97.4226 29.6117 96.9352 30.1037ZM110.448 28.2871C110.266 29.1008 109.971 29.7536 109.565 30.2456C109.159 30.7376 108.733 30.9836 108.286 30.9836C107.839 30.9836 107.494 30.8416 107.24 30.5578C106.986 30.274 106.864 29.8388 106.864 29.2522C106.864 28.1925 107.078 27.1896 107.504 26.2435C107.93 25.2974 108.499 24.5405 109.22 23.9634C109.941 23.3863 110.722 23.093 111.575 23.074L110.448 28.2871Z" fill="#231F20"/>
<path d="M168.42 18.6181C169.293 18.6181 169.993 18.4005 170.521 17.9558C171.049 17.5111 171.313 16.9151 171.313 16.1582C171.313 15.5337 171.08 15.0512 170.613 14.7106C170.146 14.37 169.536 14.1997 168.785 14.1997C167.953 14.1997 167.262 14.4173 166.704 14.862C166.145 15.3067 165.871 15.8554 165.871 16.5177C165.871 17.18 166.085 17.6909 166.511 18.0599C166.927 18.4288 167.567 18.6181 168.42 18.6181Z" fill="#231F20"/>
<path d="M224.482 28.0128C224.147 27.4546 223.66 26.7828 223.01 25.9881C222.563 25.4772 222.238 25.0514 222.025 24.7108C221.812 24.3702 221.711 24.058 221.711 23.7742C221.711 23.3011 221.893 22.724 222.259 22.0428C222.401 21.7968 222.513 21.5508 222.594 21.3048C222.675 21.0588 222.716 20.8791 222.716 20.7655C222.716 20.5574 222.604 20.406 222.381 20.3114C222.157 20.2168 221.761 20.1695 221.193 20.1695C219.974 20.1695 219.172 20.5858 218.787 21.4184C218.177 22.724 217.69 23.7553 217.314 24.5121C216.939 25.269 216.573 25.9219 216.208 26.4706C215.68 27.237 214.918 28.2115 213.924 29.3657C213.649 29.6306 213.385 29.8672 213.162 30.0469C212.594 30.5011 212.035 30.7281 211.487 30.7281C211.06 30.7281 210.715 30.4916 210.441 30.0185C210.167 29.5455 209.994 28.7602 209.913 27.6627C211.781 24.673 213.274 21.7684 214.391 18.9301C215.507 16.0917 216.066 13.6129 216.066 11.5031C216.066 10.0082 215.781 8.8918 215.203 8.15383C214.624 7.41586 213.903 7.04688 213.03 7.04688C211.264 7.04688 209.842 8.34305 208.756 10.9449C207.67 13.5467 206.939 16.6783 206.553 20.3492C205.05 20.5006 203.7 20.9831 202.492 21.8063C201.284 22.6294 200.339 23.689 199.649 24.9852C198.989 26.2341 198.644 27.587 198.624 29.0346C198.218 29.4509 197.862 29.782 197.568 30.028C197.009 30.4916 196.532 30.7281 196.126 30.7281C195.537 30.7281 195.243 30.3497 195.243 29.5928C195.243 29.063 195.436 27.9749 195.822 26.3287C196.268 24.3986 196.492 23.0646 196.492 22.3266C196.492 21.0967 195.832 20.4817 194.512 20.4817C193.842 20.4817 193.111 20.6993 192.309 21.1345C191.507 21.5697 190.694 22.2982 189.862 23.32C189.029 24.3418 188.278 25.6664 187.608 27.2937C187.689 26.4611 187.791 25.761 187.913 25.1934C188.035 24.6257 188.197 23.9634 188.4 23.2065C188.705 22.1469 188.857 21.4657 188.857 21.1629C188.857 20.898 188.776 20.7182 188.613 20.6236C188.451 20.529 188.167 20.4817 187.76 20.4817C187.009 20.4817 186.43 20.6047 186.014 20.8601C185.598 21.1156 185.303 21.513 185.121 22.0617C184.43 24.0959 184.075 26.2435 184.014 28.4858C183.324 29.1197 182.552 29.6685 181.689 30.1037C180.522 30.6997 179.486 30.993 178.572 30.993C177.151 30.993 176.186 30.5578 175.679 29.6874C178.075 29.1386 179.77 28.4007 180.775 27.464C181.781 26.5274 182.278 25.411 182.278 24.1053C182.278 22.9889 181.923 22.109 181.212 21.4562C180.501 20.8034 179.557 20.4817 178.379 20.4817C177.06 20.4817 175.882 20.8128 174.836 21.4751C173.79 22.1374 172.978 23.0267 172.389 24.1526C171.801 25.2785 171.506 26.4895 171.506 27.7952C171.506 28.2209 171.537 28.6277 171.598 29.0062C171.202 29.413 170.856 29.7536 170.562 29.9996C170.014 30.4727 169.557 30.7092 169.191 30.7092C168.806 30.7092 168.531 30.5578 168.369 30.2551C168.207 29.9523 168.125 29.5171 168.125 28.9494C168.125 28.2115 168.369 26.8017 168.856 24.7203C169.242 22.9984 169.435 21.9009 169.435 21.4278C169.435 20.7845 168.917 20.4628 167.882 20.4628C167.212 20.4628 166.724 20.5763 166.42 20.8034C166.115 21.0304 165.872 21.4467 165.689 22.0522C165.323 23.2065 165.029 24.4459 164.795 25.7799C164.785 25.8367 164.775 25.8935 164.765 25.9502C164.257 26.3003 163.811 26.499 163.435 26.499C162.927 26.499 162.673 26.1678 162.673 25.5056C162.673 25.3163 162.755 24.8433 162.917 24.0864C163.1 23.1403 163.191 22.5442 163.191 22.2982C163.191 21.0683 162.531 20.4533 161.211 20.4533C160.541 20.4533 159.81 20.6709 159.008 21.1061C158.206 21.5413 157.394 22.2699 156.562 23.2917C155.729 24.3135 154.978 25.638 154.308 27.2653C154.389 26.4328 154.49 25.7326 154.612 25.165C154.734 24.5973 154.897 23.935 155.1 23.1781C155.404 22.1185 155.557 21.4373 155.557 21.1345C155.557 20.8696 155.475 20.6898 155.313 20.5952C155.15 20.5006 154.866 20.4533 154.46 20.4533C153.881 20.4533 153.404 20.529 153.029 20.6804C152.785 20.6236 152.48 20.5952 152.125 20.5952L146.886 20.6804C147.15 18.3719 147.404 15.8174 147.648 13.0263H149.018C150.318 13.0263 151.556 13.0547 152.744 13.1115C153.932 13.1682 155.12 13.2439 156.318 13.3385L157.384 13.4237C158.887 13.5183 159.638 12.9128 159.638 11.6071C159.638 11.2098 159.536 10.8881 159.323 10.6421C159.11 10.3961 158.724 10.2353 158.156 10.1596C155.516 9.81899 152.47 9.64869 149.028 9.64869C144.054 9.64869 140.277 10.1785 137.688 11.2382C135.099 12.2978 133.81 14.0008 133.81 16.3377C133.81 17.0568 133.921 17.7096 134.145 18.2962C134.368 18.8828 134.602 19.2707 134.845 19.4599C135.231 19.7627 135.698 19.914 136.246 19.914C136.754 19.914 137.211 19.791 137.617 19.5356C138.023 19.2801 138.226 18.9868 138.226 18.6462C138.226 18.4759 138.165 18.3056 138.043 18.1353C137.637 17.5487 137.434 16.9338 137.434 16.2904C137.434 15.3632 137.881 14.6631 138.774 14.19C139.668 13.717 141.211 13.3858 143.404 13.1966C143.12 16.1674 142.856 18.6935 142.612 20.7655C142.064 20.7845 141.505 20.7939 140.937 20.7939C140.307 20.7939 139.83 20.9548 139.505 21.2575C139.18 21.5697 139.018 22.0144 139.018 22.601C139.018 23.0551 139.18 23.4052 139.515 23.6512C139.851 23.8972 140.246 24.0202 140.713 24.0202H142.175L141.993 25.5813C141.769 27.4735 141.272 28.8548 140.49 29.7347C139.708 30.6146 138.744 31.0498 137.587 31.0498C136.145 31.0498 134.937 30.4537 133.962 29.2616C133.597 28.8264 133.302 28.5331 133.069 28.3818C132.835 28.2304 132.591 28.1547 132.358 28.1547C132.013 28.1547 131.728 28.325 131.495 28.6656C131.261 29.0062 131.15 29.4036 131.15 29.8577C131.15 30.3118 131.261 30.6997 131.485 31.0214C132.033 31.8162 132.886 32.4879 134.043 33.0461C135.201 33.6043 136.47 33.8787 137.85 33.8787C140.287 33.8787 142.196 33.2164 143.587 31.8918C144.978 30.5673 145.881 28.3439 146.308 25.2312L146.49 24.0107H151.292C150.917 25.6286 150.724 27.2937 150.724 29.0346C150.724 30.6997 150.886 31.9108 151.201 32.6677C151.516 33.4245 152.054 33.803 152.825 33.803C153.455 33.803 153.912 33.6422 154.206 33.3299C154.501 33.0177 154.754 32.4217 154.978 31.5323C155.282 30.3781 155.678 29.2806 156.166 28.2398C156.653 27.1991 157.14 26.3665 157.638 25.7326C158.135 25.0987 158.531 24.7865 158.836 24.7865C159.059 24.7865 159.171 24.9379 159.171 25.2407C159.171 25.3731 159.151 25.6286 159.11 26.007C159.049 26.2908 159.019 26.5747 159.019 26.8585C159.019 27.7289 159.293 28.4196 159.851 28.9305C160.409 29.4414 161.222 29.6969 162.298 29.6969C163.059 29.6969 163.78 29.536 164.47 29.2238C164.491 30.5767 164.785 31.6742 165.354 32.5068C165.953 33.3772 166.907 33.8125 168.227 33.8125C169.638 33.8125 171.131 33.0556 172.704 31.5702C172.877 31.7878 173.06 32.0054 173.273 32.1946C174.45 33.2732 176.105 33.8125 178.237 33.8125C179.801 33.8125 181.263 33.4529 182.633 32.7339C183.222 32.4311 183.74 32.1094 184.207 31.7783C184.278 32.1189 184.359 32.4311 184.461 32.6771C184.776 33.434 185.314 33.8125 186.085 33.8125C186.715 33.8125 187.172 33.6516 187.466 33.3394C187.76 33.0272 188.014 32.4311 188.238 31.5418C188.542 30.3875 188.938 29.29 189.436 28.2493C189.933 27.2086 190.42 26.376 190.898 25.7421C191.375 25.1082 191.74 24.796 192.004 24.796C192.228 24.796 192.339 24.9474 192.339 25.2501C192.339 25.7043 192.207 26.5274 191.943 27.7195C191.659 29.0819 191.517 30.028 191.517 30.5578C191.517 31.6175 191.781 32.4217 192.309 32.9799C192.837 33.5381 193.618 33.8125 194.654 33.8125C195.933 33.8125 197.07 33.4908 198.075 32.8474C198.512 32.573 198.928 32.2514 199.344 31.9013C199.487 32.1189 199.639 32.3271 199.811 32.5163C200.614 33.3772 201.629 33.803 202.867 33.803C203.72 33.803 204.461 33.6327 205.101 33.2921C205.741 32.9515 206.482 32.2797 207.335 31.2769C208.147 32.961 209.324 33.803 210.868 33.803C211.842 33.803 212.827 33.4719 213.822 32.8001C214.817 32.1284 215.731 31.3242 216.563 30.3781C216.665 30.2645 216.756 30.1415 216.827 29.9996C216.939 29.8766 217.05 29.7631 217.152 29.6401C217.771 28.9021 218.391 27.9749 219.02 26.8585C219.304 27.1613 219.609 27.5113 219.934 27.9182C220.259 28.325 220.523 28.7413 220.736 29.1765C220.949 29.6117 221.061 30.0753 221.081 30.5673C220.898 30.5484 220.634 30.52 220.279 30.4727C219.924 30.4254 219.619 30.4064 219.355 30.4064C218.604 30.4064 218.035 30.5862 217.65 30.9457C217.264 31.3052 217.071 31.731 217.071 32.223C217.071 32.7907 217.345 33.3016 217.903 33.7557C218.462 34.2098 219.264 34.4369 220.32 34.4369C221.233 34.4369 222.046 34.2193 222.756 33.7841C223.467 33.3489 224.015 32.7812 224.411 32.0716C224.807 31.362 225 30.6146 225 29.8199C224.99 29.186 224.817 28.571 224.482 28.0128ZM210.512 16.7445C210.786 14.682 211.121 13.0169 211.497 11.7396C211.883 10.4623 212.269 9.82845 212.654 9.82845C212.837 9.82845 212.989 10.0271 213.132 10.4245C213.264 10.8219 213.325 11.3801 213.325 12.0991C213.325 14.8996 212.187 18.5989 209.913 23.216C210.045 20.9548 210.248 18.8071 210.512 16.7445ZM175.141 27.4356C175.141 26.2814 175.395 25.2974 175.912 24.4838C176.43 23.6701 177.06 23.2633 177.811 23.2633C178.176 23.2633 178.461 23.3768 178.674 23.585C178.887 23.8026 178.999 24.0959 178.999 24.4459C178.999 25.146 178.654 25.761 177.963 26.2908C177.273 26.8207 176.329 27.218 175.131 27.4829V27.4356H175.141ZM205.06 30.5389C204.675 30.8322 204.289 30.9741 203.903 30.9741C202.888 30.9741 202.38 30.2834 202.38 28.9021C202.38 27.5965 202.746 26.4138 203.487 25.3447C204.228 24.2756 205.152 23.585 206.268 23.2633C206.228 24.2851 206.208 25.0231 206.208 25.4772C206.208 26.745 206.309 27.8898 206.512 28.9116C205.923 29.7063 205.436 30.2456 205.06 30.5389Z" fill="#231F20"/>
<path d="M23.2087 43.6621C36.0266 43.6621 46.4175 33.9788 46.4175 22.0339C46.4175 10.089 36.0266 0.405762 23.2087 0.405762C10.3909 0.405762 0 10.089 0 22.0339C0 33.9788 10.3909 43.6621 23.2087 43.6621Z" fill="white"/>
<path d="M43.1688 19.8308C44.8439 24.5046 41.4225 30.3516 36.3158 31.7329C31.8994 32.925 27.6151 32.3573 23.4627 30.6733C21.5438 29.888 19.7164 28.8756 17.7569 28.2039C15.9498 27.5889 14.0411 27.0307 12.1426 26.9077C9.27954 26.7185 6.92415 28.658 6.29469 31.2598C6.23377 31.5342 6.16271 31.7991 6.05103 32.2249C5.77691 31.9032 5.57386 31.714 5.43172 31.4964C4.12204 29.4149 3.24892 27.1821 2.91389 24.7884C2.20321 19.7078 6.09164 16.4626 11.5639 17.5223C13.7467 17.948 15.635 18.9414 17.3508 20.2187C19.493 21.8176 21.554 23.5301 23.7469 25.0723C26.8028 27.2294 30.2141 28.412 34.1228 27.939C38.4275 27.4281 41.656 24.8073 42.8337 20.8999C42.9251 20.5877 43.0266 20.266 43.1688 19.8308Z" fill="#00B4ED"/>
<path d="M39.6041 32.7363C37.4822 35.7071 34.6598 37.8642 31.1673 39.2456C24.9641 41.696 18.8726 41.3838 12.9638 38.3941C11.0043 37.4007 9.44083 36.0099 8.98396 33.8244C8.40527 31.0428 10.3952 29.0086 13.3699 29.5479C14.9232 29.8318 16.4055 30.4657 17.8878 31.0239C20.0807 31.8564 22.1823 32.9161 24.426 33.6067C29.5531 35.1678 34.6699 35.3949 39.6041 32.7363Z" fill="#107DC2"/>
<path d="M27.4926 25.1854C30.3658 24.4096 32.2237 22.9715 32.9953 20.5116C33.5029 18.9032 33.3202 17.3421 32.4978 15.8567C30.5688 12.4034 26.8733 11.5708 21.9797 13.6807C22.3249 13.113 22.5077 12.7156 22.7818 12.3845C24.3148 10.5206 26.4469 9.62183 28.8733 9.34746C32.4673 8.94063 35.7162 9.75429 38.4066 12.0817C41.0869 14.3997 41.7671 17.2759 40.6605 20.4738C39.564 23.6622 36.9852 25.2706 33.5537 25.7436C31.6145 26.0085 29.6957 25.8477 27.4926 25.1854Z" fill="#DF889E"/>
<path d="M37.6052 8.66622C33.2701 6.61315 28.8537 6.02656 24.4983 8.15532C19.8687 10.4165 18.8332 14.4564 19.1276 19.2438C16.3762 17.1245 14.7315 14.8254 14.8128 11.6938C14.9447 6.87806 18.7418 3.44367 24.4069 3.19768C29.6152 2.97061 33.8894 4.96691 37.5037 8.354C37.5545 8.40131 37.5443 8.47699 37.6052 8.66622Z" fill="#F1B687"/>
<path d="M30.6204 18.7902C30.6204 20.9946 28.7726 22.7355 26.4172 22.7544C24.0517 22.7733 22.1125 20.9473 22.143 18.7334C22.1735 16.5479 24.0618 14.826 26.4172 14.8449C28.7929 14.8449 30.6305 16.5763 30.6204 18.7902Z" fill="#F0BE75"/>
<path d="M15.5133 4.59717C12.2543 7.8045 11.8888 11.4092 13.0259 15.4302C9.53341 14.3611 6.38612 14.4368 3.63477 16.7831C3.33019 14.7206 5.55361 12.4688 8.90395 11.3619C8.96487 7.63419 11.6959 5.1743 15.5133 4.59717Z" fill="#C7906E"/>
</svg>
