<svg width="185" height="62" viewBox="0 0 185 62" fill="none" xmlns="http://www.w3.org/2000/svg">
<path d="M79.0638 14.5259V32.5379C79.0638 35.7336 80.0126 38.6577 84.7121 38.6577C89.3734 38.6577 90.2267 35.8599 90.2267 32.5316V14.5259H96.4927V32.6642C96.4927 38.5945 93.7863 43.2617 84.5784 43.2617C75.5232 43.2617 72.8296 38.7524 72.8296 32.7084V14.5259H79.0638Z" fill="black"/>
<path d="M107.261 42.8449L100.084 14.5259H106.739C108.254 21.5299 110.152 30.9337 110.82 36.302H110.865C111.973 31.0095 114.667 21.3404 116.31 14.5259H121.92C123.365 19.9952 126.199 30.6306 127.154 36.0051H127.199C128.167 29.6896 130.886 18.9215 131.777 14.5259H137.846L130.223 42.8449H123.766C122.289 36.5357 119.844 27.7633 118.831 22.673H118.787C117.717 27.8707 115.157 37.2367 113.705 42.8449H107.261Z" fill="black"/>
<path d="M147.856 14.5259V42.8449H141.641V14.5259H147.856Z" fill="black"/>
<path d="M179.014 32.2726C179.014 27.4602 179.097 21.7004 179.231 18.5173H178.989C177.632 24.3845 174.512 34.8305 171.863 42.8449H166.495C164.534 36.0872 161.35 24.2013 160.095 18.4415H159.847C160.108 21.7509 160.235 27.877 160.235 32.7589V42.8449H154.53V14.5259H163.82C166.005 21.1383 168.73 31.0095 169.577 35.3104H169.628C170.284 31.6411 173.773 21.2204 176.059 14.5259H184.994V42.8449H179.008V32.2726H179.014Z" fill="black"/>
<path d="M27.0444 46.4447V62L13.7929 54.3203V54.3518L0 46.3626V0L13.7929 7.9892V38.765L27.0444 46.4447Z" fill="#57BA50"/>
<path d="M40.3024 7.9892V9.67546V14.6648V17.5447L54.0889 25.5339V18.4352V7.09871V0L40.3024 7.9892Z" fill="black"/>
<path d="M54.0889 31.1737V46.3627L40.3024 54.3519V54.3203L27.0444 62.0001V46.4448L40.3024 38.7651V23.1782L54.0889 31.1737Z" fill="#3CB54E"/>
</svg>
