<svg width="261" height="56" viewBox="0 0 261 56" fill="none" xmlns="http://www.w3.org/2000/svg">
<path d="M47 7.69989H47.8382V4.01971H49.2716L51.7254 7.69989H52.7093L49.9761 3.65827V3.63636L52.5393 0H51.5796L49.2716 3.34063H47.8382V0H47V7.69989Z" fill="#4C4C4C"/>
<path d="M52.8504 9.07996L52.5346 9.67141C52.5346 9.67141 52.9841 10 53.6157 10C54.4296 10 55.0491 9.55093 55.365 8.84995L58.3775 2.19058H57.4908L55.7294 6.2103C55.6079 6.48412 55.5229 6.7908 55.5229 6.7908H55.4986C55.4986 6.7908 55.3893 6.48412 55.2678 6.2103L53.4821 2.19058H52.571L55.1099 7.64513L54.7454 8.43373C54.5025 8.93757 54.1138 9.33187 53.5793 9.33187C53.1906 9.33187 52.8504 9.07996 52.8504 9.07996Z" fill="#4C4C4C"/>
<path d="M59.4388 9.89047H60.2649V7.21796C60.2649 6.93319 60.2284 6.73604 60.2284 6.73604H60.2527C60.6536 7.42607 61.4067 7.83133 62.2692 7.83133C63.8605 7.83133 65.0024 6.69222 65.0024 4.93976C65.0024 3.24206 63.9942 2.05915 62.3421 2.05915C61.3946 2.05915 60.5929 2.48631 60.2163 3.19825H60.192C60.192 3.19825 60.2284 3.01205 60.2284 2.77108V2.19058H59.4388V9.89047ZM60.2406 4.96167C60.2406 3.3954 61.2002 2.73823 62.2206 2.73823C63.3625 2.73823 64.1642 3.6035 64.1642 4.95071C64.1642 6.35268 63.2653 7.1632 62.1842 7.1632C60.933 7.1632 60.2406 6.06791 60.2406 4.96167Z" fill="#4C4C4C"/>
<path d="M65.9361 4.91785C65.9361 6.58269 67.3695 7.83133 69.1552 7.83133C70.9409 7.83133 72.3865 6.58269 72.3865 4.91785C72.3865 3.28587 70.9409 2.05915 69.1552 2.05915C67.3695 2.05915 65.9361 3.28587 65.9361 4.91785ZM66.7865 4.91785C66.7865 3.66922 67.8433 2.72727 69.1552 2.72727C70.4671 2.72727 71.5361 3.66922 71.5361 4.91785C71.5361 6.2103 70.4671 7.15225 69.1552 7.15225C67.8433 7.15225 66.7865 6.2103 66.7865 4.91785Z" fill="#4C4C4C"/>
<path d="M73.6865 9.89047H74.5125V7.21796C74.5125 6.93319 74.4761 6.73604 74.4761 6.73604H74.5004C74.9013 7.42607 75.6544 7.83133 76.5169 7.83133C78.1082 7.83133 79.2501 6.69222 79.2501 4.93976C79.2501 3.24206 78.2418 2.05915 76.5898 2.05915C75.6423 2.05915 74.8405 2.48631 74.464 3.19825H74.4397C74.4397 3.19825 74.4761 3.01205 74.4761 2.77108V2.19058H73.6865V9.89047ZM74.4883 4.96167C74.4883 3.3954 75.4479 2.73823 76.4683 2.73823C77.6102 2.73823 78.4119 3.6035 78.4119 4.95071C78.4119 6.35268 77.513 7.1632 76.4319 7.1632C75.1807 7.1632 74.4883 6.06791 74.4883 4.96167Z" fill="#4C4C4C"/>
<path d="M81.961 7.69989H82.7871V2.84775H85.0222V2.19058H79.7381V2.84775H81.961V7.69989Z" fill="#4C4C4C"/>
<path d="M86.048 7.69989H86.874V5.20263H90.4454V7.69989H91.2714V2.19058H90.4454V4.54545H86.874V2.19058H86.048V7.69989Z" fill="#4C4C4C"/>
<path d="M92.4594 6.22125C92.4594 7.28368 93.492 7.83133 94.5245 7.83133C95.5084 7.83133 96.2737 7.26177 96.5896 6.59365H96.6139C96.6139 6.59365 96.5774 6.77985 96.5774 7.05367V7.69989H97.367V4.17306C97.367 2.79299 96.5531 2.05915 95.0833 2.05915C94.2694 2.05915 93.4069 2.31106 92.921 2.68346L93.2976 3.25301C93.7956 2.92442 94.4152 2.72727 95.0347 2.72727C95.8972 2.72727 96.541 3.08872 96.541 4.15115V4.30449H96.1766C95.0104 4.30449 92.4594 4.41402 92.4594 6.22125ZM93.2976 6.15553C93.2976 4.92881 95.2412 4.89595 96.1887 4.89595H96.541V5.14786C96.541 6.11172 95.8486 7.20701 94.6703 7.20701C93.7592 7.20701 93.2976 6.67032 93.2976 6.15553Z" fill="#4C4C4C"/>
<path d="M98.4069 7.69989H99.3665L100.97 5.58598H102.233V7.69989H103.059V2.19058H100.909C99.6459 2.19058 98.747 2.76013 98.747 3.86637C98.747 4.76451 99.4394 5.32311 100.156 5.45455V5.47645C100.156 5.47645 99.9982 5.62979 99.8767 5.80504L98.4069 7.69989ZM101.006 5.00548C100.217 5.00548 99.5973 4.61117 99.5973 3.86637C99.5973 3.07777 100.156 2.76013 101.067 2.76013H102.233V5.00548H101.006Z" fill="#4C4C4C"/>
<path d="M107.592 7.69989H108.418V5.20263H111.989V7.69989H112.815V2.19058H111.989V4.54545H108.418V2.19058H107.592V7.69989Z" fill="#4C4C4C"/>
<path d="M114.125 4.95071C114.125 6.64841 115.509 7.83133 117.332 7.83133C118.133 7.83133 119.02 7.5356 119.591 7.06462L119.214 6.49507C118.716 6.90033 118.024 7.15225 117.356 7.15225C116.093 7.15225 115.024 6.37459 114.987 4.97262H119.676C119.688 4.85214 119.7 4.7207 119.7 4.60022C119.7 3.23111 118.838 2.05915 117.149 2.05915C115.497 2.05915 114.125 3.14348 114.125 4.95071ZM115.024 4.38116C115.218 3.27492 116.105 2.67251 117.125 2.67251C118.036 2.67251 118.814 3.23111 118.862 4.38116H115.024Z" fill="#4C4C4C"/>
<path d="M121.799 7.06462C122.71 5.82694 122.795 3.9759 122.795 3.15444V2.82585H124.933V7.06462H121.799ZM120.159 7.06462V9.01424H120.948V7.69989H125.832V9.01424H126.621V7.06462H125.759V2.19058H121.981V3.08872C121.981 3.83352 121.944 5.84885 120.912 7.06462H120.159Z" fill="#4C4C4C"/>
<path d="M127.718 7.69989H130.05C131.423 7.69989 132.261 7.10843 132.261 6.15553C132.261 5.50931 131.811 4.97262 131.022 4.83023V4.80832C131.617 4.61117 131.945 4.1621 131.945 3.59255C131.945 2.68346 131.168 2.19058 129.929 2.19058H127.718V7.69989ZM128.544 4.57831V2.76013H129.795C130.657 2.76013 131.095 3.04491 131.095 3.63636C131.095 4.22782 130.67 4.57831 129.844 4.57831H128.544ZM128.544 7.11939V5.14786H129.929C130.876 5.14786 131.411 5.49836 131.411 6.14458C131.411 6.73603 130.949 7.11939 129.941 7.11939H128.544Z" fill="#4C4C4C"/>
<path d="M133.584 7.69989H134.374L137.374 4.07448C137.605 3.7678 137.981 3.32968 137.994 3.27492H138.018C138.018 3.31873 137.981 3.75685 137.981 4.07448V7.69989H138.795V2.19058H138.006L135.005 5.80504C134.762 6.11172 134.398 6.5827 134.374 6.62651H134.349C134.362 6.6046 134.386 6.14458 134.386 5.80504V2.19058H133.584V7.69989Z" fill="#4C4C4C"/>
<path d="M139.777 7.69989H140.737L142.535 5.21358H143.506V7.69989H144.308V5.21358H145.292L147.078 7.69989H148.05L145.984 4.88499V4.86309L147.855 2.19058H146.944L145.292 4.55641H144.308V2.19058H143.506V4.55641H142.522L140.87 2.19058H139.971L141.842 4.86309V4.88499L139.777 7.69989Z" fill="#4C4C4C"/>
<path d="M149.03 7.69989H149.819L152.82 4.07448C153.051 3.7678 153.427 3.32968 153.439 3.27492H153.464C153.464 3.31873 153.427 3.75685 153.427 4.07448V7.69989H154.241V2.19058H153.452L150.451 5.80504C150.208 6.11172 149.844 6.5827 149.819 6.62651H149.795C149.807 6.6046 149.832 6.14458 149.832 5.80504V2.19058H149.03V7.69989Z" fill="#4C4C4C"/>
<path d="M155.733 7.69989H156.535L156.839 4.1402C156.863 3.84447 156.839 3.18729 156.839 3.18729H156.863C156.863 3.18729 157.033 3.5816 157.264 4.00876L158.952 7.06462H159.705L161.406 3.98686C161.661 3.53779 161.795 3.18729 161.795 3.18729H161.819C161.819 3.18729 161.807 3.84447 161.819 4.1402L162.123 7.69989H162.937L162.426 2.19058H161.564L159.718 5.58598C159.535 5.93647 159.341 6.36364 159.341 6.36364H159.317C159.317 6.36364 159.11 5.92552 158.94 5.58598L157.106 2.19058H156.231L155.733 7.69989Z" fill="#4C4C4C"/>
<path d="M164.015 4.91785C164.015 6.58269 165.449 7.83133 167.234 7.83133C169.02 7.83133 170.466 6.58269 170.466 4.91785C170.466 3.28587 169.02 2.05915 167.234 2.05915C165.449 2.05915 164.015 3.28587 164.015 4.91785ZM164.866 4.91785C164.866 3.66922 165.922 2.72727 167.234 2.72727C168.546 2.72727 169.615 3.66922 169.615 4.91785C169.615 6.2103 168.546 7.15225 167.234 7.15225C165.922 7.15225 164.866 6.2103 164.866 4.91785Z" fill="#4C4C4C"/>
<path d="M171.353 4.95071C171.353 6.65936 172.75 7.83133 174.56 7.83133C175.495 7.83133 176.406 7.49179 176.94 6.95509L176.564 6.3965C176.078 6.87842 175.313 7.15225 174.608 7.15225C173.248 7.15225 172.203 6.24315 172.203 4.95071C172.203 3.63636 173.248 2.72727 174.584 2.72727C175.264 2.72727 175.944 3.01205 176.37 3.40635L176.795 2.84775C176.248 2.31106 175.361 2.05915 174.56 2.05915C172.762 2.05915 171.353 3.25301 171.353 4.95071Z" fill="#4C4C4C"/>
<path d="M179.625 7.69989H180.451V2.84775H182.686V2.19058H177.402V2.84775H179.625V7.69989Z" fill="#4C4C4C"/>
<path d="M183.712 7.69989H185.838C187.308 7.69989 188 7.00986 188 6.01314C188 4.70975 186.955 4.29354 185.862 4.29354H184.538V2.19058H183.712V7.69989ZM184.538 7.10843V4.88499H185.777C186.737 4.88499 187.15 5.33406 187.15 6.00219C187.15 6.65936 186.749 7.10843 185.765 7.10843H184.538Z" fill="#4C4C4C"/>
<path fill-rule="evenodd" clip-rule="evenodd" d="M14.9254 18.5646C14.4177 18.2968 13.8085 17.9398 13.3009 17.8505C12.0825 22.4024 11.4733 24.2767 11.2702 29.3641C11.1687 31.1492 11.0671 30.0782 11.2702 32.3987C11.4733 34.5408 11.0671 37.6646 12.7932 39.1819L13.9101 39.9852H12.184C12.184 41.2347 16.3469 50.6955 17.1592 52.5698C17.2607 52.9268 17.3622 53.1053 17.5653 53.3731C17.7684 53.7301 17.7684 53.9086 18.073 54.2656C18.073 53.7301 18.073 53.1946 18.073 52.7483C18.073 52.1236 17.9714 52.0343 17.9714 51.3203L18.1745 48.2857C19.1898 41.681 20.0021 39.4497 22.7435 33.3805C24.2665 30.0782 26.6018 25.8833 28.3279 22.4917C28.734 21.7776 29.1402 21.0636 29.4448 20.3496L31.577 15.887C30.4601 15.887 29.4448 16.3332 28.2263 16.3332L28.3279 16.244C30.054 15.173 30.1555 15.173 31.577 13.8342C33.1 12.3169 33.9122 10.0856 34.3184 8.03274C34.5214 6.7832 34.826 1.42804 34.826 0L31.3739 2.05281C30.257 2.76683 29.4448 3.74861 29.4448 5.44441L28.4294 3.83786C27.9217 3.83786 27.6171 4.19488 27.211 4.37338L19.6975 9.01452C19.3929 9.19302 19.3929 9.19302 19.0883 9.46078C18.7837 9.72854 18.4791 9.9963 18.1745 10.2641C16.9561 11.1566 17.4638 10.8888 16.753 11.6028C12.9963 15.0837 14.7223 16.8688 14.9254 18.5646Z" fill="#419AE8"/>
<path fill-rule="evenodd" clip-rule="evenodd" d="M14.9254 18.5646C14.4177 18.2968 13.8085 17.9398 13.3009 17.8505C12.0825 22.4024 11.4733 24.2767 11.2702 29.3641C11.1687 31.1492 11.0671 30.0782 11.2702 32.3987C11.4733 34.5408 11.0671 37.6646 12.7932 39.1819L13.9101 39.9852H12.184C12.184 41.2347 16.3469 50.6955 17.1592 52.5698C17.2607 52.9268 17.3622 53.1053 17.5653 53.3731C17.7684 53.7301 17.7684 53.9086 18.073 54.2656C18.073 53.7301 18.073 53.1946 18.073 52.7483C18.073 52.1236 17.9714 52.0343 17.9714 51.3203L18.1745 48.2857C19.1898 41.681 20.0021 39.4497 22.7435 33.3805C24.2665 30.0782 26.6018 25.8833 28.3279 22.4917C28.734 21.7776 29.1402 21.0636 29.4448 20.3496L31.577 15.887C30.4601 15.887 29.4448 16.3332 28.2263 16.3332L28.3279 16.244C30.054 15.173 30.1555 15.173 31.577 13.8342C33.1 12.3169 33.9122 10.0856 34.3184 8.03274C34.5214 6.7832 34.826 1.42804 34.826 0L31.3739 2.05281C30.257 2.76683 29.4448 3.74861 29.4448 5.44441L28.4294 3.83786C27.9217 3.83786 27.6171 4.19488 27.211 4.37338L19.6975 9.01452C19.3929 9.19302 19.3929 9.19302 19.0883 9.46078C18.7837 9.72854 18.4791 9.9963 18.1745 10.2641C16.9561 11.1566 17.4638 10.8888 16.753 11.6028C12.9963 15.0837 14.7223 16.8688 14.9254 18.5646Z" fill="url(#paint0_linear_1_111)" fill-opacity="0.3"/>
<path fill-rule="evenodd" clip-rule="evenodd" d="M18.8853 3.74756C18.073 4.10459 17.4638 4.64013 16.753 5.17567C15.1285 6.33601 12.2856 8.65668 10.8641 9.99553L9.13803 11.7807C8.52882 12.4055 8.02116 12.941 7.41195 13.5658C6.70122 14.2799 6.49815 14.7261 5.99048 15.6187C5.58435 16.6005 5.38128 17.1361 5.38128 18.4749L4.36595 17.2253L3.24908 19.0997C1.42147 21.9559 0.203067 25.2584 0 28.561V30.7031C0.101534 32.5775 0.609202 34.3626 1.42147 36.1478C2.84294 39.004 4.56901 41.0569 7.00582 43.2883L9.44263 45.609C9.74723 45.966 9.9503 46.0553 10.2549 46.4123L12.5902 48.9115C12.7932 49.09 12.7932 49.1793 12.9963 49.2685C13.4024 49.6256 13.0978 49.5363 13.504 49.6256C11.4733 46.1445 9.44263 41.9495 8.32576 38.0222C8.02116 36.8618 7.41195 34.8089 7.41195 33.4701C6.90429 33.5593 6.90429 33.7378 6.39662 33.8271C7.41195 32.4883 7.10735 31.4172 7.10735 29.4535C7.10735 24.0981 8.32576 19.3675 10.8641 14.7261C13.1994 10.4418 15.027 8.12114 18.1745 4.46161C18.5807 4.19384 18.7837 4.10459 18.8853 3.74756Z" fill="#419AE8"/>
<path fill-rule="evenodd" clip-rule="evenodd" d="M18.8853 3.74756C18.073 4.10459 17.4638 4.64013 16.753 5.17567C15.1285 6.33601 12.2856 8.65668 10.8641 9.99553L9.13803 11.7807C8.52882 12.4055 8.02116 12.941 7.41195 13.5658C6.70122 14.2799 6.49815 14.7261 5.99048 15.6187C5.58435 16.6005 5.38128 17.1361 5.38128 18.4749L4.36595 17.2253L3.24908 19.0997C1.42147 21.9559 0.203067 25.2584 0 28.561V30.7031C0.101534 32.5775 0.609202 34.3626 1.42147 36.1478C2.84294 39.004 4.56901 41.0569 7.00582 43.2883L9.44263 45.609C9.74723 45.966 9.9503 46.0553 10.2549 46.4123L12.5902 48.9115C12.7932 49.09 12.7932 49.1793 12.9963 49.2685C13.4024 49.6256 13.0978 49.5363 13.504 49.6256C11.4733 46.1445 9.44263 41.9495 8.32576 38.0222C8.02116 36.8618 7.41195 34.8089 7.41195 33.4701C6.90429 33.5593 6.90429 33.7378 6.39662 33.8271C7.41195 32.4883 7.10735 31.4172 7.10735 29.4535C7.10735 24.0981 8.32576 19.3675 10.8641 14.7261C13.1994 10.4418 15.027 8.12114 18.1745 4.46161C18.5807 4.19384 18.7837 4.10459 18.8853 3.74756Z" fill="url(#paint1_linear_1_111)" fill-opacity="0.3"/>
<path fill-rule="evenodd" clip-rule="evenodd" d="M18.8851 3.7488H18.9875L18.8851 3.65967V3.7488Z" fill="#419AE8"/>
<path fill-rule="evenodd" clip-rule="evenodd" d="M18.8851 3.7488H18.9875L18.8851 3.65967V3.7488Z" fill="url(#paint2_linear_1_111)" fill-opacity="0.3"/>
<path d="M76.2134 22.1688C76.3998 21.3736 75.9337 20.9993 74.955 20.9993H71.9258C69.6422 31.1969 65.7741 41.5348 61.6263 48.6918L51.6064 21.6074C51.42 21.0461 51.0938 20.7654 50.3947 20.7654C49.4626 20.7654 48.1577 21.28 47.1324 21.9817L58.9699 53.7438H62.6516C63.7235 53.7438 64.0963 53.4163 64.5157 52.6679C69.8286 43.2655 73.7899 32.6938 76.2134 22.1688Z" fill="#313131"/>
<path d="M83.0103 24.3673C84.4084 24.3673 85.3871 23.4318 85.3871 21.9349C85.3871 20.2977 84.222 19.2686 82.8704 19.2686C81.5189 19.2686 80.4936 20.2509 80.4936 21.7478C80.4936 23.3382 81.7053 24.3673 83.0103 24.3673ZM81.0063 48.645C81.0063 52.8082 82.8238 54.0712 85.0142 54.0712C86.8318 54.0712 87.9503 53.0889 87.9503 52.2469C87.9503 51.6855 87.9037 51.2178 87.7173 50.7968H86.692C85.5735 50.7968 85.0608 50.0951 85.0608 48.3175V29.4661C85.0608 28.8112 84.688 28.4838 83.8025 28.4838C82.9171 28.4838 81.9384 28.6241 81.0063 28.9048V48.645Z" fill="#313131"/>
<path d="M102.282 51.8727C102.282 51.3581 102.049 50.6564 101.77 50.2354C101.024 50.5629 99.9523 50.75 99.0668 50.75C97.2026 50.75 96.224 49.7209 96.224 47.2417V20.2977C96.224 19.6428 95.8511 19.3153 94.9656 19.3153C94.0802 19.3153 93.1015 19.4557 92.1694 19.6896V47.1013C92.1694 51.5452 94.1734 54.0712 97.9949 54.0712C100.698 54.0712 102.282 52.7146 102.282 51.8727Z" fill="#313131"/>
<path d="M114.811 51.8727C114.811 51.3581 114.578 50.6564 114.298 50.2354C113.553 50.5629 112.481 50.75 111.595 50.75C109.731 50.75 108.752 49.7209 108.752 47.2417V20.2977C108.752 19.6428 108.38 19.3153 107.494 19.3153C106.609 19.3153 105.63 19.4557 104.698 19.6896V47.1013C104.698 51.5452 106.702 54.0712 110.523 54.0712C113.226 54.0712 114.811 52.7146 114.811 51.8727Z" fill="#313131"/>
<path d="M125.692 50.8435C122.802 50.8435 120.472 49.2999 120.472 46.3529C120.472 43.5462 122.756 41.8622 126.81 41.8622C128.768 41.8622 131.564 42.2364 133.102 42.8913V46.3061C131.517 49.2999 128.581 50.8435 125.692 50.8435ZM138.927 50.7968C137.809 50.7968 137.156 50.1887 137.156 48.224V37.9329C137.156 31.4776 133.149 28.2031 126.717 28.2031C122.01 28.2031 118.515 30.121 118.515 31.4308C118.515 32.0389 118.748 32.8341 119.074 33.2083C121.031 32.1792 123.408 31.7114 125.738 31.7114C130.446 31.7114 133.102 33.7229 133.102 37.7458V39.804C131.331 38.9152 128.675 38.3539 126.298 38.3539C120.286 38.3539 116.418 41.3477 116.418 46.4932C116.418 51.1242 119.82 54.3051 124.853 54.3051C128.581 54.3051 131.611 52.6211 133.242 50.0015C133.568 52.5275 135.106 54.0712 137.063 54.0712C138.974 54.0712 140.093 53.0889 140.093 52.2469C140.093 51.6855 139.999 51.2178 139.86 50.7968H138.927Z" fill="#313131"/>
<path d="M169.897 28.2328C167.94 24.2099 163.513 21.3564 157.641 21.3564C149.764 21.3564 142.867 27.1101 142.867 37.3077C142.867 48.3472 150.417 55.2235 160.297 55.2235C165.19 55.2235 169.059 53.1653 169.059 51.762C169.059 51.0603 168.826 50.3119 168.499 49.7973C166.309 51.0135 163.559 51.5749 160.949 51.5749C153.167 51.5749 147.155 46.289 147.155 37.1673C147.155 29.3087 152.141 25.0519 157.408 25.0519C161.742 25.0519 164.957 27.344 166.495 31.2265C167.381 31.133 168.266 30.8991 168.872 30.6184C169.758 30.2442 170.13 29.7764 170.13 29.028C170.13 28.7941 170.037 28.5134 169.897 28.2328Z" fill="#419AE8"/>
<path d="M169.897 28.2328C167.94 24.2099 163.513 21.3564 157.641 21.3564C149.764 21.3564 142.867 27.1101 142.867 37.3077C142.867 48.3472 150.417 55.2235 160.297 55.2235C165.19 55.2235 169.059 53.1653 169.059 51.762C169.059 51.0603 168.826 50.3119 168.499 49.7973C166.309 51.0135 163.559 51.5749 160.949 51.5749C153.167 51.5749 147.155 46.289 147.155 37.1673C147.155 29.3087 152.141 25.0519 157.408 25.0519C161.742 25.0519 164.957 27.344 166.495 31.2265C167.381 31.133 168.266 30.8991 168.872 30.6184C169.758 30.2442 170.13 29.7764 170.13 29.028C170.13 28.7941 170.037 28.5134 169.897 28.2328Z" fill="url(#paint3_linear_1_111)" fill-opacity="0.3"/>
<path d="M182.505 51.762C179.615 51.762 177.285 50.2183 177.285 47.2713C177.285 44.4647 179.569 42.7807 183.623 42.7807C185.581 42.7807 188.377 43.1549 189.915 43.8098V47.2245C188.33 50.2183 185.394 51.762 182.505 51.762ZM195.74 51.7152C194.622 51.7152 193.969 51.1071 193.969 49.1424V38.8513C193.969 32.396 189.962 29.1216 183.53 29.1216C178.823 29.1216 175.328 31.0394 175.328 32.3492C175.328 32.9573 175.561 33.7525 175.887 34.1268C177.844 33.0977 180.221 32.6299 182.551 32.6299C187.258 32.6299 189.915 34.6413 189.915 38.6642V40.7224C188.144 39.8337 185.488 39.2723 183.111 39.2723C177.099 39.2723 173.231 42.2661 173.231 47.4117C173.231 52.0426 176.633 55.2235 181.666 55.2235C185.394 55.2235 188.424 53.5395 190.055 50.92C190.381 53.446 191.919 54.9896 193.876 54.9896C195.787 54.9896 196.906 54.0073 196.906 53.1653C196.906 52.604 196.812 52.1362 196.673 51.7152H195.74Z" fill="#419AE8"/>
<path d="M182.505 51.762C179.615 51.762 177.285 50.2183 177.285 47.2713C177.285 44.4647 179.569 42.7807 183.623 42.7807C185.581 42.7807 188.377 43.1549 189.915 43.8098V47.2245C188.33 50.2183 185.394 51.762 182.505 51.762ZM195.74 51.7152C194.622 51.7152 193.969 51.1071 193.969 49.1424V38.8513C193.969 32.396 189.962 29.1216 183.53 29.1216C178.823 29.1216 175.328 31.0394 175.328 32.3492C175.328 32.9573 175.561 33.7525 175.887 34.1268C177.844 33.0977 180.221 32.6299 182.551 32.6299C187.258 32.6299 189.915 34.6413 189.915 38.6642V40.7224C188.144 39.8337 185.488 39.2723 183.111 39.2723C177.099 39.2723 173.231 42.2661 173.231 47.4117C173.231 52.0426 176.633 55.2235 181.666 55.2235C185.394 55.2235 188.424 53.5395 190.055 50.92C190.381 53.446 191.919 54.9896 193.876 54.9896C195.787 54.9896 196.906 54.0073 196.906 53.1653C196.906 52.604 196.812 52.1362 196.673 51.7152H195.74Z" fill="url(#paint4_linear_1_111)" fill-opacity="0.3"/>
<path d="M216.515 30.1039C215.537 29.4958 214.092 29.1216 212.274 29.1216C209.012 29.1216 206.495 30.8055 205.004 33.3783V30.3845C205.004 29.7297 204.631 29.4022 203.746 29.4022C202.86 29.4022 201.882 29.5426 200.95 29.8232V53.6331C200.95 54.3815 201.276 54.6622 202.254 54.6622H205.004V38.1964C206.029 34.4542 208.22 32.6299 211.156 32.6299C212.74 32.6299 214.371 33.0509 215.583 33.9864C216.142 33.659 216.795 33.1444 217.214 32.5831C217.494 32.2557 217.634 31.8814 217.634 31.554C217.634 30.9459 217.354 30.6184 216.515 30.1039Z" fill="#419AE8"/>
<path d="M216.515 30.1039C215.537 29.4958 214.092 29.1216 212.274 29.1216C209.012 29.1216 206.495 30.8055 205.004 33.3783V30.3845C205.004 29.7297 204.631 29.4022 203.746 29.4022C202.86 29.4022 201.882 29.5426 200.95 29.8232V53.6331C200.95 54.3815 201.276 54.6622 202.254 54.6622H205.004V38.1964C206.029 34.4542 208.22 32.6299 211.156 32.6299C212.74 32.6299 214.371 33.0509 215.583 33.9864C216.142 33.659 216.795 33.1444 217.214 32.5831C217.494 32.2557 217.634 31.8814 217.634 31.554C217.634 30.9459 217.354 30.6184 216.515 30.1039Z" fill="url(#paint5_linear_1_111)" fill-opacity="0.3"/>
<path d="M231.34 51.7152C228.73 51.7152 226.773 50.3587 226.773 46.9439V33.1444H235.721V30.9927C235.721 30.0571 235.395 29.6829 234.696 29.6829H226.773V23.2276C226.773 22.5727 226.4 22.2452 225.515 22.2452C224.629 22.2452 223.65 22.3856 222.718 22.6194V29.6829H218.524C218.338 30.3378 218.244 31.1798 218.244 31.9282C218.244 32.7702 218.571 33.1444 219.223 33.1444H222.718V46.6632C222.718 52.3233 225.841 55.2235 230.408 55.2235C233.763 55.2235 235.861 53.8202 235.861 52.7443C235.861 52.1362 235.581 51.341 235.255 50.9668C234.136 51.4813 232.645 51.7152 231.34 51.7152Z" fill="#419AE8"/>
<path d="M231.34 51.7152C228.73 51.7152 226.773 50.3587 226.773 46.9439V33.1444H235.721V30.9927C235.721 30.0571 235.395 29.6829 234.696 29.6829H226.773V23.2276C226.773 22.5727 226.4 22.2452 225.515 22.2452C224.629 22.2452 223.65 22.3856 222.718 22.6194V29.6829H218.524C218.338 30.3378 218.244 31.1798 218.244 31.9282C218.244 32.7702 218.571 33.1444 219.223 33.1444H222.718V46.6632C222.718 52.3233 225.841 55.2235 230.408 55.2235C233.763 55.2235 235.861 53.8202 235.861 52.7443C235.861 52.1362 235.581 51.341 235.255 50.9668C234.136 51.4813 232.645 51.7152 231.34 51.7152Z" fill="url(#paint6_linear_1_111)" fill-opacity="0.3"/>
<path d="M251.353 51.7152C246.786 51.7152 243.058 49.0021 242.545 43.8565H256.526C258.251 43.8565 259.09 43.4355 259.742 41.9387C260.161 41.0031 260.441 39.6465 260.441 38.29C260.441 33.0041 256.433 29.1216 250.561 29.1216C244.036 29.1216 238.351 34.0332 238.351 42.1725C238.351 49.8441 243.617 55.2235 250.701 55.2235C255.175 55.2235 258.111 53.3524 258.111 52.0894C258.111 51.4813 257.878 50.6861 257.552 50.2651C255.641 51.2942 253.544 51.7152 251.353 51.7152ZM250.375 32.6299C254.196 32.6299 256.48 34.922 256.48 38.4771C256.48 39.132 256.34 39.8804 256.107 40.395H242.545C243.011 35.5769 246.227 32.6299 250.375 32.6299Z" fill="#419AE8"/>
<path d="M251.353 51.7152C246.786 51.7152 243.058 49.0021 242.545 43.8565H256.526C258.251 43.8565 259.09 43.4355 259.742 41.9387C260.161 41.0031 260.441 39.6465 260.441 38.29C260.441 33.0041 256.433 29.1216 250.561 29.1216C244.036 29.1216 238.351 34.0332 238.351 42.1725C238.351 49.8441 243.617 55.2235 250.701 55.2235C255.175 55.2235 258.111 53.3524 258.111 52.0894C258.111 51.4813 257.878 50.6861 257.552 50.2651C255.641 51.2942 253.544 51.7152 251.353 51.7152ZM250.375 32.6299C254.196 32.6299 256.48 34.922 256.48 38.4771C256.48 39.132 256.34 39.8804 256.107 40.395H242.545C243.011 35.5769 246.227 32.6299 250.375 32.6299Z" fill="url(#paint7_linear_1_111)" fill-opacity="0.3"/>
<defs>
<linearGradient id="paint0_linear_1_111" x1="11.153" y1="22.3622" x2="34.3925" y2="25.5365" gradientUnits="userSpaceOnUse">
<stop stop-color="#3D3BFF"/>
<stop offset="1" stop-color="#1090FF"/>
</linearGradient>
<linearGradient id="paint1_linear_1_111" x1="2.01492e-07" y1="22.6533" x2="18.5767" y2="25.0476" gradientUnits="userSpaceOnUse">
<stop stop-color="#3D3BFF"/>
<stop offset="1" stop-color="#1090FF"/>
</linearGradient>
<linearGradient id="paint2_linear_1_111" x1="18.8851" y1="3.6964" x2="18.9758" y2="3.72899" gradientUnits="userSpaceOnUse">
<stop stop-color="#3D3BFF"/>
<stop offset="1" stop-color="#1090FF"/>
</linearGradient>
<linearGradient id="paint3_linear_1_111" x1="142.867" y1="35.3127" x2="196.763" y2="93.8958" gradientUnits="userSpaceOnUse">
<stop stop-color="#3D3BFF"/>
<stop offset="1" stop-color="#1090FF"/>
</linearGradient>
<linearGradient id="paint4_linear_1_111" x1="142.867" y1="35.3127" x2="196.763" y2="93.8958" gradientUnits="userSpaceOnUse">
<stop stop-color="#3D3BFF"/>
<stop offset="1" stop-color="#1090FF"/>
</linearGradient>
<linearGradient id="paint5_linear_1_111" x1="142.867" y1="35.3127" x2="196.763" y2="93.8958" gradientUnits="userSpaceOnUse">
<stop stop-color="#3D3BFF"/>
<stop offset="1" stop-color="#1090FF"/>
</linearGradient>
<linearGradient id="paint6_linear_1_111" x1="142.867" y1="35.3127" x2="196.763" y2="93.8958" gradientUnits="userSpaceOnUse">
<stop stop-color="#3D3BFF"/>
<stop offset="1" stop-color="#1090FF"/>
</linearGradient>
<linearGradient id="paint7_linear_1_111" x1="142.867" y1="35.3127" x2="196.763" y2="93.8958" gradientUnits="userSpaceOnUse">
<stop stop-color="#3D3BFF"/>
<stop offset="1" stop-color="#1090FF"/>
</linearGradient>
</defs>
</svg>
