<svg width="242" height="50" viewBox="0 0 242 50" fill="none" xmlns="http://www.w3.org/2000/svg">
<g clip-path="url(#clip0_251_54)">
<path d="M42.7059 15.3125C41.5987 14.6875 40.3333 14.6875 39.2261 15.3125L31.1595 20.1562L25.6235 23.2812L17.2405 28.125C16.1333 28.75 14.868 28.75 13.7608 28.125L7.27582 24.375C6.16863 23.75 5.53595 22.5 5.53595 21.25V13.75C5.53595 12.5 6.16863 11.25 7.27582 10.625L13.6026 6.875C14.7098 6.25 15.9752 6.25 17.0824 6.875L23.4092 10.625C24.6745 11.4062 25.3072 12.5 25.3072 13.75V18.5938L30.8431 15.3125V10.4688C30.8431 9.21875 30.2105 7.96875 29.1033 7.34375L17.3987 0.3125C16.2915 -0.3125 15.0261 -0.3125 13.919 0.3125L1.73987 7.5C0.63268 8.125 0 9.21875 0 10.4688V24.5312C0 25.7812 0.63268 27.0313 1.73987 27.6563L13.7608 34.6875C14.868 35.3125 16.1333 35.3125 17.2405 34.6875L25.3072 30L30.8431 26.7188L38.9098 22.0313C40.017 21.4063 41.2824 21.4063 42.3895 22.0313L48.7163 25.7812C49.8235 26.4062 50.4562 27.6562 50.4562 28.9062V36.4062C50.4562 37.6562 49.8235 38.9062 48.7163 39.5312L42.3895 43.2812C41.2824 43.9062 40.017 43.9062 38.9098 43.2812L32.583 39.5312C31.4758 38.9062 30.8431 37.6562 30.8431 36.4062V31.5625L25.3072 34.8438V39.6875C25.3072 40.9375 25.9399 42.1875 27.0471 42.8125L39.068 49.8438C40.1752 50.4688 41.4405 50.4688 42.5477 49.8438L54.5686 42.8125C55.6758 42.1875 56.3085 40.9375 56.3085 39.6875V25.625C56.3085 24.375 55.6758 23.125 54.5686 22.5L42.7059 15.3125Z" fill="#7B3FE4"/>
<path d="M78.4523 45.4688V33.75C79.7176 35.3125 82.0902 36.25 84.7791 36.25C91.5804 36.25 96.1673 31.4062 96.1673 24.0625C96.1673 16.7188 92.0549 11.875 85.4118 11.875C82.4065 11.875 80.034 12.9688 78.6105 14.8438V12.3438H72.1255V45.4688H78.4523ZM83.9882 30.625C80.5085 30.625 78.136 27.9688 78.136 24.0625C78.136 20 80.5085 17.5 83.9882 17.5C87.468 17.5 89.8405 20.1562 89.8405 24.0625C89.8405 28.125 87.468 30.625 83.9882 30.625Z" fill="black"/>
<path d="M111.035 36.25C118.311 36.25 123.531 31.0938 123.531 24.0625C123.531 17.0312 118.311 11.875 111.035 11.875C103.759 11.875 98.5399 17.0312 98.5399 24.0625C98.5399 31.0938 103.759 36.25 111.035 36.25ZM111.035 30.625C107.556 30.625 105.025 27.9688 105.025 24.0625C105.025 20.1562 107.397 17.5 111.035 17.5C114.515 17.5 117.046 20.1562 117.046 24.0625C117.046 27.9688 114.673 30.625 111.035 30.625Z" fill="black"/>
<path d="M134.128 35.9375V2.03125H127.643V35.9375H134.128Z" fill="black"/>
<path d="M153.741 12.3437L148.838 27.6562L143.776 12.3437H137.133L145.675 35.7812L142.353 45.4687H148.68L152.001 35.7812L160.542 12.1875L153.741 12.3437Z" fill="black"/>
<path d="M178.89 14.6875C177.625 13.125 175.252 12.0312 172.405 12.0312C165.446 12.0312 161.333 16.875 161.333 24.2188C161.333 31.5625 165.446 36.4062 172.563 36.4062C175.41 36.4062 177.783 35.3125 179.048 33.5938V36.7188C179.048 38.9062 177.625 40.4688 175.569 40.4688H164.655V45.625H176.676C182.054 45.625 185.692 42.3437 185.692 37.5V12.5H179.048L178.89 14.6875ZM173.512 30.625C170.033 30.625 167.66 28.125 167.66 24.0625C167.66 20 170.033 17.5 173.512 17.5C176.992 17.5 179.365 20.1562 179.365 24.0625C179.365 27.9688 176.992 30.625 173.512 30.625Z" fill="black"/>
<path d="M201.983 36.25C209.259 36.25 214.478 31.0938 214.478 24.0625C214.478 17.0312 209.259 11.875 201.983 11.875C194.707 11.875 189.488 17.0312 189.488 24.0625C189.488 31.0938 194.707 36.25 201.983 36.25ZM201.983 30.625C198.503 30.625 195.973 27.9688 195.973 24.0625C195.973 20.1562 198.345 17.5 201.983 17.5C205.463 17.5 207.993 20.1562 207.993 24.0625C207.993 27.9688 205.463 30.625 201.983 30.625Z" fill="black"/>
<path d="M224.759 35.9375V22.9688C224.759 20 226.816 17.6563 229.663 17.6563C232.352 17.6563 234.25 19.6875 234.25 22.5V35.9375H240.893V21.25C240.893 15.7813 237.413 12.0312 232.035 12.0312C228.714 12.0312 226.183 13.4375 224.759 15.625V12.3438H218.116V35.9375H224.759Z" fill="black"/>
</g>
<defs>
<clipPath id="clip0_251_54">
<rect width="242" height="50" fill="white"/>
</clipPath>
</defs>
</svg>
